<mxfile host="app.diagrams.net" modified="2022-07-06T20:32:54.619Z" agent="5.0 (Windows NT 10.0; Win64; x64) AppleWebKit/537.36 (KHTML, like Gecko) Chrome/103.0.5060.66 Safari/537.36 Edg/103.0.1264.44" etag="pQX3mLObvsrcjID4qTGF" version="20.0.4" type="github" pages="3">
  <diagram id="hY5Z4vYu1crIj4cy2kPB" name="第 1 页">
    <mxGraphModel dx="1826" dy="1608" grid="1" gridSize="10" guides="1" tooltips="1" connect="1" arrows="1" fold="1" page="1" pageScale="1" pageWidth="1169" pageHeight="827" math="0" shadow="0">
      <root>
        <mxCell id="0" />
        <mxCell id="1" parent="0" />
        <mxCell id="LRmMPDEXKQD5YRX8Q6Oj-173" value="" style="rounded=1;whiteSpace=wrap;html=1;glass=1;fillColor=none;dashed=1;strokeWidth=1;shadow=0;arcSize=13;" vertex="1" parent="1">
          <mxGeometry x="190" y="-590" width="179" height="281" as="geometry" />
        </mxCell>
        <mxCell id="LRmMPDEXKQD5YRX8Q6Oj-174" value="" style="ellipse;whiteSpace=wrap;html=1;aspect=fixed;rounded=0;sketch=0;strokeWidth=1;fillColor=#dae8fc;strokeColor=#6c8ebf;gradientColor=#7ea6e0;" vertex="1" parent="1">
          <mxGeometry x="231" y="-579" width="25" height="25" as="geometry" />
        </mxCell>
        <mxCell id="LRmMPDEXKQD5YRX8Q6Oj-175" value="" style="ellipse;whiteSpace=wrap;html=1;aspect=fixed;rounded=0;sketch=0;strokeWidth=1;fillColor=#dae8fc;strokeColor=#6c8ebf;gradientColor=#7ea6e0;" vertex="1" parent="1">
          <mxGeometry x="231" y="-543" width="25" height="25" as="geometry" />
        </mxCell>
        <mxCell id="LRmMPDEXKQD5YRX8Q6Oj-176" value="" style="ellipse;whiteSpace=wrap;html=1;aspect=fixed;rounded=0;sketch=0;strokeWidth=1;fillColor=#dae8fc;strokeColor=#6c8ebf;gradientColor=#7ea6e0;" vertex="1" parent="1">
          <mxGeometry x="231" y="-507" width="25" height="25" as="geometry" />
        </mxCell>
        <mxCell id="LRmMPDEXKQD5YRX8Q6Oj-177" value="" style="ellipse;whiteSpace=wrap;html=1;aspect=fixed;rounded=0;sketch=0;strokeWidth=1;fillColor=#dae8fc;strokeColor=#6c8ebf;gradientColor=#7ea6e0;" vertex="1" parent="1">
          <mxGeometry x="231" y="-471" width="25" height="25" as="geometry" />
        </mxCell>
        <mxCell id="LRmMPDEXKQD5YRX8Q6Oj-178" value="" style="ellipse;whiteSpace=wrap;html=1;aspect=fixed;rounded=0;sketch=0;strokeWidth=1;fillColor=#dae8fc;strokeColor=#6c8ebf;gradientColor=#7ea6e0;" vertex="1" parent="1">
          <mxGeometry x="231" y="-435" width="25" height="25" as="geometry" />
        </mxCell>
        <mxCell id="LRmMPDEXKQD5YRX8Q6Oj-179" value="" style="ellipse;whiteSpace=wrap;html=1;aspect=fixed;rounded=0;sketch=0;strokeWidth=1;fillColor=#fff2cc;strokeColor=#d6b656;gradientColor=#ffd966;" vertex="1" parent="1">
          <mxGeometry x="308" y="-579" width="25" height="25" as="geometry" />
        </mxCell>
        <mxCell id="LRmMPDEXKQD5YRX8Q6Oj-180" value="" style="ellipse;whiteSpace=wrap;html=1;aspect=fixed;rounded=0;sketch=0;strokeWidth=1;fillColor=#fff2cc;strokeColor=#d6b656;gradientColor=#ffd966;" vertex="1" parent="1">
          <mxGeometry x="308" y="-543" width="25" height="25" as="geometry" />
        </mxCell>
        <mxCell id="LRmMPDEXKQD5YRX8Q6Oj-181" value="" style="ellipse;whiteSpace=wrap;html=1;aspect=fixed;rounded=0;sketch=0;strokeWidth=1;fillColor=#fff2cc;strokeColor=#d6b656;gradientColor=#ffd966;" vertex="1" parent="1">
          <mxGeometry x="308" y="-507" width="25" height="25" as="geometry" />
        </mxCell>
        <mxCell id="LRmMPDEXKQD5YRX8Q6Oj-182" value="" style="ellipse;whiteSpace=wrap;html=1;aspect=fixed;rounded=0;sketch=0;strokeWidth=1;fillColor=#fff2cc;strokeColor=#d6b656;gradientColor=#ffd966;" vertex="1" parent="1">
          <mxGeometry x="308" y="-471" width="25" height="25" as="geometry" />
        </mxCell>
        <mxCell id="LRmMPDEXKQD5YRX8Q6Oj-183" value="" style="ellipse;whiteSpace=wrap;html=1;aspect=fixed;rounded=0;sketch=0;strokeWidth=1;fillColor=#fff2cc;strokeColor=#d6b656;gradientColor=#ffd966;" vertex="1" parent="1">
          <mxGeometry x="308" y="-435" width="25" height="25" as="geometry" />
        </mxCell>
        <mxCell id="LRmMPDEXKQD5YRX8Q6Oj-184" value="" style="endArrow=none;html=1;rounded=1;sketch=0;curved=0;entryX=0;entryY=0.5;entryDx=0;entryDy=0;exitX=1;exitY=0.5;exitDx=0;exitDy=0;" edge="1" parent="1" source="LRmMPDEXKQD5YRX8Q6Oj-174" target="LRmMPDEXKQD5YRX8Q6Oj-179">
          <mxGeometry width="50" height="50" relative="1" as="geometry">
            <mxPoint x="263" y="-525" as="sourcePoint" />
            <mxPoint x="313" y="-575" as="targetPoint" />
          </mxGeometry>
        </mxCell>
        <mxCell id="LRmMPDEXKQD5YRX8Q6Oj-185" value="" style="endArrow=none;html=1;rounded=1;sketch=0;curved=0;entryX=1;entryY=0.5;entryDx=0;entryDy=0;exitX=0;exitY=0.5;exitDx=0;exitDy=0;" edge="1" parent="1" source="LRmMPDEXKQD5YRX8Q6Oj-180" target="LRmMPDEXKQD5YRX8Q6Oj-174">
          <mxGeometry width="50" height="50" relative="1" as="geometry">
            <mxPoint x="347" y="-423" as="sourcePoint" />
            <mxPoint x="397" y="-473" as="targetPoint" />
          </mxGeometry>
        </mxCell>
        <mxCell id="LRmMPDEXKQD5YRX8Q6Oj-186" value="" style="endArrow=none;html=1;rounded=1;sketch=0;curved=0;exitX=0;exitY=0.5;exitDx=0;exitDy=0;entryX=1;entryY=0.5;entryDx=0;entryDy=0;" edge="1" parent="1" source="LRmMPDEXKQD5YRX8Q6Oj-180" target="LRmMPDEXKQD5YRX8Q6Oj-175">
          <mxGeometry width="50" height="50" relative="1" as="geometry">
            <mxPoint x="346.00000000000296" y="-520.5" as="sourcePoint" />
            <mxPoint x="266" y="-556.5" as="targetPoint" />
          </mxGeometry>
        </mxCell>
        <mxCell id="LRmMPDEXKQD5YRX8Q6Oj-187" value="" style="endArrow=none;html=1;rounded=1;sketch=0;curved=0;exitX=0;exitY=0.5;exitDx=0;exitDy=0;entryX=1;entryY=0.5;entryDx=0;entryDy=0;" edge="1" parent="1">
          <mxGeometry width="50" height="50" relative="1" as="geometry">
            <mxPoint x="308" y="-530.5" as="sourcePoint" />
            <mxPoint x="256" y="-494.5" as="targetPoint" />
          </mxGeometry>
        </mxCell>
        <mxCell id="LRmMPDEXKQD5YRX8Q6Oj-188" value="" style="endArrow=none;html=1;rounded=1;sketch=0;curved=0;exitX=0;exitY=0.5;exitDx=0;exitDy=0;entryX=1;entryY=0.5;entryDx=0;entryDy=0;dashed=1;strokeColor=#FF0000;" edge="1" parent="1" source="LRmMPDEXKQD5YRX8Q6Oj-182" target="LRmMPDEXKQD5YRX8Q6Oj-177">
          <mxGeometry width="50" height="50" relative="1" as="geometry">
            <mxPoint x="318" y="-520.5" as="sourcePoint" />
            <mxPoint x="266" y="-484.4999999999999" as="targetPoint" />
          </mxGeometry>
        </mxCell>
        <mxCell id="LRmMPDEXKQD5YRX8Q6Oj-189" value="" style="endArrow=none;html=1;rounded=1;sketch=0;curved=0;exitX=0;exitY=0.5;exitDx=0;exitDy=0;entryX=1;entryY=0.5;entryDx=0;entryDy=0;" edge="1" parent="1" source="LRmMPDEXKQD5YRX8Q6Oj-182" target="LRmMPDEXKQD5YRX8Q6Oj-178">
          <mxGeometry width="50" height="50" relative="1" as="geometry">
            <mxPoint x="318" y="-448.5" as="sourcePoint" />
            <mxPoint x="266" y="-448.5" as="targetPoint" />
          </mxGeometry>
        </mxCell>
        <mxCell id="LRmMPDEXKQD5YRX8Q6Oj-190" value="" style="endArrow=none;html=1;rounded=1;sketch=0;curved=0;exitX=0;exitY=0.5;exitDx=0;exitDy=0;entryX=1;entryY=0.5;entryDx=0;entryDy=0;" edge="1" parent="1" source="LRmMPDEXKQD5YRX8Q6Oj-181" target="LRmMPDEXKQD5YRX8Q6Oj-177">
          <mxGeometry width="50" height="50" relative="1" as="geometry">
            <mxPoint x="328" y="-438.5" as="sourcePoint" />
            <mxPoint x="276" y="-438.5" as="targetPoint" />
          </mxGeometry>
        </mxCell>
        <mxCell id="LRmMPDEXKQD5YRX8Q6Oj-191" value="" style="endArrow=none;html=1;rounded=1;sketch=0;curved=0;exitX=0;exitY=0.5;exitDx=0;exitDy=0;entryX=1;entryY=0.5;entryDx=0;entryDy=0;" edge="1" parent="1" source="LRmMPDEXKQD5YRX8Q6Oj-183" target="LRmMPDEXKQD5YRX8Q6Oj-177">
          <mxGeometry width="50" height="50" relative="1" as="geometry">
            <mxPoint x="338" y="-428.5" as="sourcePoint" />
            <mxPoint x="286" y="-428.5" as="targetPoint" />
          </mxGeometry>
        </mxCell>
        <mxCell id="LRmMPDEXKQD5YRX8Q6Oj-192" value="" style="endArrow=none;html=1;rounded=1;sketch=0;curved=0;exitX=0;exitY=0.5;exitDx=0;exitDy=0;entryX=1;entryY=0.5;entryDx=0;entryDy=0;" edge="1" parent="1" source="LRmMPDEXKQD5YRX8Q6Oj-183" target="LRmMPDEXKQD5YRX8Q6Oj-175">
          <mxGeometry width="50" height="50" relative="1" as="geometry">
            <mxPoint x="348" y="-418.5" as="sourcePoint" />
            <mxPoint x="296" y="-418" as="targetPoint" />
          </mxGeometry>
        </mxCell>
        <mxCell id="LRmMPDEXKQD5YRX8Q6Oj-193" value="" style="endArrow=none;html=1;rounded=1;sketch=0;curved=0;exitX=0;exitY=0.5;exitDx=0;exitDy=0;entryX=1;entryY=0.5;entryDx=0;entryDy=0;strokeColor=#FF0000;dashed=1;" edge="1" parent="1">
          <mxGeometry width="50" height="50" relative="1" as="geometry">
            <mxPoint x="308" y="-422.78" as="sourcePoint" />
            <mxPoint x="256" y="-422.78" as="targetPoint" />
          </mxGeometry>
        </mxCell>
        <mxCell id="LRmMPDEXKQD5YRX8Q6Oj-194" value="" style="endArrow=none;html=1;rounded=1;sketch=0;curved=0;exitX=0;exitY=0.5;exitDx=0;exitDy=0;entryX=1;entryY=0.5;entryDx=0;entryDy=0;strokeColor=#FF0000;dashed=1;" edge="1" parent="1" source="LRmMPDEXKQD5YRX8Q6Oj-181" target="LRmMPDEXKQD5YRX8Q6Oj-174">
          <mxGeometry width="50" height="50" relative="1" as="geometry">
            <mxPoint x="318" y="-412.78" as="sourcePoint" />
            <mxPoint x="266" y="-412.78" as="targetPoint" />
          </mxGeometry>
        </mxCell>
        <mxCell id="LRmMPDEXKQD5YRX8Q6Oj-195" value="" style="endArrow=none;html=1;rounded=1;sketch=0;curved=0;exitX=1;exitY=0.5;exitDx=0;exitDy=0;strokeColor=#FF0000;dashed=1;" edge="1" parent="1" source="LRmMPDEXKQD5YRX8Q6Oj-176">
          <mxGeometry width="50" height="50" relative="1" as="geometry">
            <mxPoint x="328" y="-402.78" as="sourcePoint" />
            <mxPoint x="306" y="-566" as="targetPoint" />
          </mxGeometry>
        </mxCell>
        <mxCell id="LRmMPDEXKQD5YRX8Q6Oj-196" value="" style="endArrow=none;html=1;rounded=1;sketch=0;curved=0;exitX=0;exitY=0.5;exitDx=0;exitDy=0;entryX=1;entryY=0.5;entryDx=0;entryDy=0;strokeColor=#FF0000;dashed=1;" edge="1" parent="1" source="LRmMPDEXKQD5YRX8Q6Oj-182" target="LRmMPDEXKQD5YRX8Q6Oj-175">
          <mxGeometry width="50" height="50" relative="1" as="geometry">
            <mxPoint x="338" y="-392.78" as="sourcePoint" />
            <mxPoint x="286" y="-392.78" as="targetPoint" />
          </mxGeometry>
        </mxCell>
        <mxCell id="LRmMPDEXKQD5YRX8Q6Oj-197" value="" style="endArrow=none;html=1;rounded=1;sketch=0;curved=0;exitX=0;exitY=0.5;exitDx=0;exitDy=0;entryX=1;entryY=0.5;entryDx=0;entryDy=0;strokeColor=#000000;" edge="1" parent="1">
          <mxGeometry width="50" height="50" relative="1" as="geometry">
            <mxPoint x="308" y="-494.78" as="sourcePoint" />
            <mxPoint x="256" y="-494.78" as="targetPoint" />
          </mxGeometry>
        </mxCell>
        <mxCell id="LRmMPDEXKQD5YRX8Q6Oj-198" value="" style="ellipse;whiteSpace=wrap;html=1;aspect=fixed;rounded=0;sketch=0;strokeWidth=1;fillColor=#dae8fc;strokeColor=#6c8ebf;gradientColor=#7ea6e0;" vertex="1" parent="1">
          <mxGeometry x="204" y="-390" width="18" height="18" as="geometry" />
        </mxCell>
        <mxCell id="LRmMPDEXKQD5YRX8Q6Oj-199" value="&lt;p&gt;&lt;font style=&quot;font-size: 6px&quot;&gt;&lt;b&gt;Undiscovered links&lt;/b&gt;&lt;/font&gt;&lt;/p&gt;" style="text;html=1;align=center;verticalAlign=middle;resizable=0;points=[];autosize=1;strokeColor=none;fillColor=none;strokeWidth=1;" vertex="1" parent="1">
          <mxGeometry x="245.75" y="-351" width="120" height="42" as="geometry" />
        </mxCell>
        <mxCell id="LRmMPDEXKQD5YRX8Q6Oj-200" value="&lt;b&gt;Diseases&lt;/b&gt;" style="text;html=1;align=center;verticalAlign=middle;resizable=0;points=[];autosize=1;strokeColor=none;fillColor=none;" vertex="1" parent="1">
          <mxGeometry x="283" y="-390" width="62" height="18" as="geometry" />
        </mxCell>
        <mxCell id="LRmMPDEXKQD5YRX8Q6Oj-201" value="&lt;p&gt;&lt;font style=&quot;font-size: 5px&quot;&gt;&lt;b&gt;Drugs&lt;/b&gt;&lt;/font&gt;&lt;/p&gt;" style="text;html=1;strokeColor=none;fillColor=none;align=center;verticalAlign=middle;whiteSpace=wrap;rounded=0;sketch=0;fontSize=6;" vertex="1" parent="1">
          <mxGeometry x="227" y="-391" width="36" height="19" as="geometry" />
        </mxCell>
        <mxCell id="LRmMPDEXKQD5YRX8Q6Oj-202" value="" style="ellipse;whiteSpace=wrap;html=1;aspect=fixed;rounded=0;sketch=0;strokeWidth=1;fillColor=#fff2cc;strokeColor=#d6b656;gradientColor=#ffd966;" vertex="1" parent="1">
          <mxGeometry x="268" y="-390" width="18" height="18" as="geometry" />
        </mxCell>
        <mxCell id="LRmMPDEXKQD5YRX8Q6Oj-203" value="" style="endArrow=none;html=1;rounded=1;sketch=0;fontSize=6;strokeColor=#000000;curved=0;strokeWidth=1;labelBackgroundColor=none;" edge="1" parent="1">
          <mxGeometry width="50" height="50" relative="1" as="geometry">
            <mxPoint x="241.5" y="-352" as="sourcePoint" />
            <mxPoint x="200.5" y="-352" as="targetPoint" />
          </mxGeometry>
        </mxCell>
        <mxCell id="LRmMPDEXKQD5YRX8Q6Oj-204" value="&lt;font style=&quot;font-size: 11px&quot;&gt;&lt;b&gt;Known association&lt;/b&gt;&lt;/font&gt;" style="text;html=1;strokeColor=none;fillColor=none;align=center;verticalAlign=middle;whiteSpace=wrap;rounded=0;sketch=0;fontSize=6;" vertex="1" parent="1">
          <mxGeometry x="244.5" y="-360" width="122.5" height="14" as="geometry" />
        </mxCell>
        <mxCell id="LRmMPDEXKQD5YRX8Q6Oj-205" value="" style="endArrow=none;html=1;rounded=1;sketch=0;curved=0;strokeColor=#FF0000;dashed=1;" edge="1" parent="1">
          <mxGeometry width="50" height="50" relative="1" as="geometry">
            <mxPoint x="241.5" y="-328.78787878787875" as="sourcePoint" />
            <mxPoint x="198.5" y="-328.78787878787875" as="targetPoint" />
          </mxGeometry>
        </mxCell>
        <mxCell id="LRmMPDEXKQD5YRX8Q6Oj-206" style="edgeStyle=orthogonalEdgeStyle;curved=0;rounded=1;sketch=0;orthogonalLoop=1;jettySize=auto;html=1;exitX=0.5;exitY=1;exitDx=0;exitDy=0;fontSize=11;strokeColor=#000000;strokeWidth=1;" edge="1" parent="1" source="LRmMPDEXKQD5YRX8Q6Oj-173" target="LRmMPDEXKQD5YRX8Q6Oj-173">
          <mxGeometry relative="1" as="geometry" />
        </mxCell>
        <mxCell id="LRmMPDEXKQD5YRX8Q6Oj-207" value="" style="shape=table;startSize=0;container=1;collapsible=0;childLayout=tableLayout;rounded=0;shadow=0;sketch=0;fontSize=11;strokeWidth=1;" vertex="1" parent="1">
          <mxGeometry x="449" y="-545" width="267" height="173.9052413137336" as="geometry" />
        </mxCell>
        <mxCell id="LRmMPDEXKQD5YRX8Q6Oj-208" value="" style="shape=tableRow;horizontal=0;startSize=0;swimlaneHead=0;swimlaneBody=0;top=0;left=0;bottom=0;right=0;collapsible=0;dropTarget=0;fillColor=none;points=[[0,0.5],[1,0.5]];portConstraint=eastwest;rounded=0;shadow=0;sketch=0;fontSize=11;strokeWidth=1;strokeColor=#000000;" vertex="1" parent="LRmMPDEXKQD5YRX8Q6Oj-207">
          <mxGeometry width="267" height="36" as="geometry" />
        </mxCell>
        <mxCell id="LRmMPDEXKQD5YRX8Q6Oj-209" value="" style="shape=partialRectangle;html=1;whiteSpace=wrap;connectable=0;overflow=hidden;fillColor=none;top=0;left=0;bottom=0;right=0;pointerEvents=1;rounded=0;shadow=0;sketch=0;fontSize=11;strokeWidth=1;" vertex="1" parent="LRmMPDEXKQD5YRX8Q6Oj-208">
          <mxGeometry width="39" height="36" as="geometry">
            <mxRectangle width="39" height="36" as="alternateBounds" />
          </mxGeometry>
        </mxCell>
        <mxCell id="LRmMPDEXKQD5YRX8Q6Oj-210" value="" style="shape=partialRectangle;html=1;whiteSpace=wrap;connectable=0;overflow=hidden;fillColor=none;top=0;left=0;bottom=0;right=0;pointerEvents=1;rounded=0;shadow=0;sketch=0;fontSize=11;strokeWidth=1;" vertex="1" parent="LRmMPDEXKQD5YRX8Q6Oj-208">
          <mxGeometry x="39" width="37" height="36" as="geometry">
            <mxRectangle width="37" height="36" as="alternateBounds" />
          </mxGeometry>
        </mxCell>
        <mxCell id="LRmMPDEXKQD5YRX8Q6Oj-211" value="1" style="shape=partialRectangle;html=1;whiteSpace=wrap;connectable=0;overflow=hidden;fillColor=#60a917;top=0;left=0;bottom=0;right=0;pointerEvents=1;rounded=0;shadow=0;sketch=0;fontSize=11;strokeWidth=1;fontColor=#ffffff;strokeColor=#2D7600;" vertex="1" parent="LRmMPDEXKQD5YRX8Q6Oj-208">
          <mxGeometry x="76" width="39" height="36" as="geometry">
            <mxRectangle width="39" height="36" as="alternateBounds" />
          </mxGeometry>
        </mxCell>
        <mxCell id="LRmMPDEXKQD5YRX8Q6Oj-212" value="1" style="shape=partialRectangle;html=1;whiteSpace=wrap;connectable=0;overflow=hidden;fillColor=#FF0000;top=0;left=0;bottom=0;right=0;pointerEvents=1;rounded=0;shadow=0;sketch=0;fontSize=11;strokeWidth=1;strokeColor=#2D7600;fontColor=#ffffff;" vertex="1" parent="LRmMPDEXKQD5YRX8Q6Oj-208">
          <mxGeometry x="115" width="41" height="36" as="geometry">
            <mxRectangle width="41" height="36" as="alternateBounds" />
          </mxGeometry>
        </mxCell>
        <mxCell id="LRmMPDEXKQD5YRX8Q6Oj-213" value="" style="shape=partialRectangle;html=1;whiteSpace=wrap;connectable=0;overflow=hidden;fillColor=none;top=0;left=0;bottom=0;right=0;pointerEvents=1;rounded=0;shadow=0;sketch=0;fontSize=11;strokeWidth=1;" vertex="1" parent="LRmMPDEXKQD5YRX8Q6Oj-208">
          <mxGeometry x="156" width="35" height="36" as="geometry">
            <mxRectangle width="35" height="36" as="alternateBounds" />
          </mxGeometry>
        </mxCell>
        <mxCell id="LRmMPDEXKQD5YRX8Q6Oj-214" value="1" style="shape=partialRectangle;html=1;whiteSpace=wrap;connectable=0;overflow=hidden;fillColor=#60a917;top=0;left=0;bottom=0;right=0;pointerEvents=1;rounded=0;shadow=0;sketch=0;fontSize=11;strokeWidth=1;strokeColor=#2D7600;fontColor=#ffffff;" vertex="1" parent="LRmMPDEXKQD5YRX8Q6Oj-208">
          <mxGeometry x="191" width="39" height="36" as="geometry">
            <mxRectangle width="39" height="36" as="alternateBounds" />
          </mxGeometry>
        </mxCell>
        <mxCell id="LRmMPDEXKQD5YRX8Q6Oj-215" value="" style="shape=partialRectangle;html=1;whiteSpace=wrap;connectable=0;overflow=hidden;top=0;left=0;bottom=0;right=0;pointerEvents=1;rounded=0;shadow=0;sketch=0;fontSize=11;strokeWidth=1;fillColor=none;" vertex="1" parent="LRmMPDEXKQD5YRX8Q6Oj-208">
          <mxGeometry x="230" width="37" height="36" as="geometry">
            <mxRectangle width="37" height="36" as="alternateBounds" />
          </mxGeometry>
        </mxCell>
        <mxCell id="LRmMPDEXKQD5YRX8Q6Oj-216" value="" style="shape=tableRow;horizontal=0;startSize=0;swimlaneHead=0;swimlaneBody=0;top=0;left=0;bottom=0;right=0;collapsible=0;dropTarget=0;fillColor=none;points=[[0,0.5],[1,0.5]];portConstraint=eastwest;rounded=0;shadow=0;sketch=0;fontSize=11;strokeWidth=1;" vertex="1" parent="LRmMPDEXKQD5YRX8Q6Oj-207">
          <mxGeometry y="36" width="267" height="31" as="geometry" />
        </mxCell>
        <mxCell id="LRmMPDEXKQD5YRX8Q6Oj-217" value="1" style="shape=partialRectangle;html=1;whiteSpace=wrap;connectable=0;overflow=hidden;fillColor=none;top=0;left=0;bottom=0;right=0;pointerEvents=1;rounded=0;shadow=0;sketch=0;fontSize=11;strokeWidth=1;" vertex="1" parent="LRmMPDEXKQD5YRX8Q6Oj-216">
          <mxGeometry width="39" height="31" as="geometry">
            <mxRectangle width="39" height="31" as="alternateBounds" />
          </mxGeometry>
        </mxCell>
        <mxCell id="LRmMPDEXKQD5YRX8Q6Oj-218" value="" style="shape=partialRectangle;html=1;whiteSpace=wrap;connectable=0;overflow=hidden;fillColor=none;top=0;left=0;bottom=0;right=0;pointerEvents=1;rounded=0;shadow=0;sketch=0;fontSize=11;strokeWidth=1;" vertex="1" parent="LRmMPDEXKQD5YRX8Q6Oj-216">
          <mxGeometry x="39" width="37" height="31" as="geometry">
            <mxRectangle width="37" height="31" as="alternateBounds" />
          </mxGeometry>
        </mxCell>
        <mxCell id="LRmMPDEXKQD5YRX8Q6Oj-219" value="1" style="shape=partialRectangle;html=1;whiteSpace=wrap;connectable=0;overflow=hidden;top=0;left=0;bottom=0;right=0;pointerEvents=1;rounded=0;shadow=0;sketch=0;fontSize=11;strokeWidth=1;fillColor=#60a917;fontColor=#ffffff;strokeColor=#2D7600;" vertex="1" parent="LRmMPDEXKQD5YRX8Q6Oj-216">
          <mxGeometry x="76" width="39" height="31" as="geometry">
            <mxRectangle width="39" height="31" as="alternateBounds" />
          </mxGeometry>
        </mxCell>
        <mxCell id="LRmMPDEXKQD5YRX8Q6Oj-220" value="1" style="shape=partialRectangle;html=1;whiteSpace=wrap;connectable=0;overflow=hidden;fillColor=#60a917;top=0;left=0;bottom=0;right=0;pointerEvents=1;rounded=0;shadow=0;sketch=0;fontSize=11;strokeWidth=1;strokeColor=#2D7600;fontColor=#ffffff;" vertex="1" parent="LRmMPDEXKQD5YRX8Q6Oj-216">
          <mxGeometry x="115" width="41" height="31" as="geometry">
            <mxRectangle width="41" height="31" as="alternateBounds" />
          </mxGeometry>
        </mxCell>
        <mxCell id="LRmMPDEXKQD5YRX8Q6Oj-221" value="" style="shape=partialRectangle;html=1;whiteSpace=wrap;connectable=0;overflow=hidden;fillColor=none;top=0;left=0;bottom=0;right=0;pointerEvents=1;rounded=0;shadow=0;sketch=0;fontSize=11;strokeWidth=1;fontColor=#ffffff;strokeColor=#2D7600;" vertex="1" parent="LRmMPDEXKQD5YRX8Q6Oj-216">
          <mxGeometry x="156" width="35" height="31" as="geometry">
            <mxRectangle width="35" height="31" as="alternateBounds" />
          </mxGeometry>
        </mxCell>
        <mxCell id="LRmMPDEXKQD5YRX8Q6Oj-222" value="" style="shape=partialRectangle;html=1;whiteSpace=wrap;connectable=0;overflow=hidden;fillColor=none;top=0;left=0;bottom=0;right=0;pointerEvents=1;rounded=0;shadow=0;sketch=0;fontSize=11;strokeWidth=1;strokeColor=#2D7600;fontColor=#ffffff;" vertex="1" parent="LRmMPDEXKQD5YRX8Q6Oj-216">
          <mxGeometry x="191" width="39" height="31" as="geometry">
            <mxRectangle width="39" height="31" as="alternateBounds" />
          </mxGeometry>
        </mxCell>
        <mxCell id="LRmMPDEXKQD5YRX8Q6Oj-223" value="" style="shape=partialRectangle;html=1;whiteSpace=wrap;connectable=0;overflow=hidden;fillColor=none;top=0;left=0;bottom=0;right=0;pointerEvents=1;rounded=0;shadow=0;sketch=0;fontSize=11;strokeWidth=1;" vertex="1" parent="LRmMPDEXKQD5YRX8Q6Oj-216">
          <mxGeometry x="230" width="37" height="31" as="geometry">
            <mxRectangle width="37" height="31" as="alternateBounds" />
          </mxGeometry>
        </mxCell>
        <mxCell id="LRmMPDEXKQD5YRX8Q6Oj-224" value="" style="shape=tableRow;horizontal=0;startSize=0;swimlaneHead=0;swimlaneBody=0;top=0;left=0;bottom=0;right=0;collapsible=0;dropTarget=0;fillColor=none;points=[[0,0.5],[1,0.5]];portConstraint=eastwest;rounded=0;shadow=0;sketch=0;fontSize=11;strokeWidth=1;" vertex="1" parent="LRmMPDEXKQD5YRX8Q6Oj-207">
          <mxGeometry y="67" width="267" height="36" as="geometry" />
        </mxCell>
        <mxCell id="LRmMPDEXKQD5YRX8Q6Oj-225" value="" style="shape=partialRectangle;html=1;whiteSpace=wrap;connectable=0;overflow=hidden;fillColor=none;top=0;left=0;bottom=0;right=0;pointerEvents=1;rounded=0;shadow=0;sketch=0;fontSize=11;strokeWidth=1;" vertex="1" parent="LRmMPDEXKQD5YRX8Q6Oj-224">
          <mxGeometry width="39" height="36" as="geometry">
            <mxRectangle width="39" height="36" as="alternateBounds" />
          </mxGeometry>
        </mxCell>
        <mxCell id="LRmMPDEXKQD5YRX8Q6Oj-226" value="" style="shape=partialRectangle;html=1;whiteSpace=wrap;connectable=0;overflow=hidden;fillColor=none;top=0;left=0;bottom=0;right=0;pointerEvents=1;rounded=0;shadow=0;sketch=0;fontSize=11;strokeWidth=1;" vertex="1" parent="LRmMPDEXKQD5YRX8Q6Oj-224">
          <mxGeometry x="39" width="37" height="36" as="geometry">
            <mxRectangle width="37" height="36" as="alternateBounds" />
          </mxGeometry>
        </mxCell>
        <mxCell id="LRmMPDEXKQD5YRX8Q6Oj-227" value="" style="shape=partialRectangle;html=1;whiteSpace=wrap;connectable=0;overflow=hidden;fillColor=none;top=0;left=0;bottom=0;right=0;pointerEvents=1;rounded=0;shadow=0;sketch=0;fontSize=11;strokeWidth=1;fontColor=#ffffff;strokeColor=#2D7600;" vertex="1" parent="LRmMPDEXKQD5YRX8Q6Oj-224">
          <mxGeometry x="76" width="39" height="36" as="geometry">
            <mxRectangle width="39" height="36" as="alternateBounds" />
          </mxGeometry>
        </mxCell>
        <mxCell id="LRmMPDEXKQD5YRX8Q6Oj-228" value="1" style="shape=partialRectangle;html=1;whiteSpace=wrap;connectable=0;overflow=hidden;fillColor=#60a917;top=0;left=0;bottom=0;right=0;pointerEvents=1;rounded=0;shadow=0;sketch=0;fontSize=11;strokeWidth=1;fontColor=#ffffff;strokeColor=#2D7600;" vertex="1" parent="LRmMPDEXKQD5YRX8Q6Oj-224">
          <mxGeometry x="115" width="41" height="36" as="geometry">
            <mxRectangle width="41" height="36" as="alternateBounds" />
          </mxGeometry>
        </mxCell>
        <mxCell id="LRmMPDEXKQD5YRX8Q6Oj-229" value="" style="shape=partialRectangle;html=1;whiteSpace=wrap;connectable=0;overflow=hidden;fillColor=none;top=0;left=0;bottom=0;right=0;pointerEvents=1;rounded=0;shadow=0;sketch=0;fontSize=11;strokeWidth=1;" vertex="1" parent="LRmMPDEXKQD5YRX8Q6Oj-224">
          <mxGeometry x="156" width="35" height="36" as="geometry">
            <mxRectangle width="35" height="36" as="alternateBounds" />
          </mxGeometry>
        </mxCell>
        <mxCell id="LRmMPDEXKQD5YRX8Q6Oj-230" value="1" style="shape=partialRectangle;html=1;whiteSpace=wrap;connectable=0;overflow=hidden;fillColor=#60a917;top=0;left=0;bottom=0;right=0;pointerEvents=1;rounded=0;shadow=0;sketch=0;fontSize=11;strokeWidth=1;strokeColor=#2D7600;fontColor=#ffffff;" vertex="1" parent="LRmMPDEXKQD5YRX8Q6Oj-224">
          <mxGeometry x="191" width="39" height="36" as="geometry">
            <mxRectangle width="39" height="36" as="alternateBounds" />
          </mxGeometry>
        </mxCell>
        <mxCell id="LRmMPDEXKQD5YRX8Q6Oj-231" value="" style="shape=partialRectangle;html=1;whiteSpace=wrap;connectable=0;overflow=hidden;fillColor=none;top=0;left=0;bottom=0;right=0;pointerEvents=1;rounded=0;shadow=0;sketch=0;fontSize=11;strokeWidth=1;strokeColor=#2D7600;fontColor=#ffffff;" vertex="1" parent="LRmMPDEXKQD5YRX8Q6Oj-224">
          <mxGeometry x="230" width="37" height="36" as="geometry">
            <mxRectangle width="37" height="36" as="alternateBounds" />
          </mxGeometry>
        </mxCell>
        <mxCell id="LRmMPDEXKQD5YRX8Q6Oj-232" value="" style="shape=tableRow;horizontal=0;startSize=0;swimlaneHead=0;swimlaneBody=0;top=0;left=0;bottom=0;right=0;collapsible=0;dropTarget=0;fillColor=none;points=[[0,0.5],[1,0.5]];portConstraint=eastwest;rounded=0;shadow=0;sketch=0;fontSize=11;strokeWidth=1;" vertex="1" parent="LRmMPDEXKQD5YRX8Q6Oj-207">
          <mxGeometry y="103" width="267" height="35" as="geometry" />
        </mxCell>
        <mxCell id="LRmMPDEXKQD5YRX8Q6Oj-233" value="1" style="shape=partialRectangle;html=1;whiteSpace=wrap;connectable=0;overflow=hidden;fillColor=none;top=0;left=0;bottom=0;right=0;pointerEvents=1;rounded=0;shadow=0;sketch=0;fontSize=11;strokeWidth=1;" vertex="1" parent="LRmMPDEXKQD5YRX8Q6Oj-232">
          <mxGeometry width="39" height="35" as="geometry">
            <mxRectangle width="39" height="35" as="alternateBounds" />
          </mxGeometry>
        </mxCell>
        <mxCell id="LRmMPDEXKQD5YRX8Q6Oj-234" value="" style="shape=partialRectangle;html=1;whiteSpace=wrap;connectable=0;overflow=hidden;fillColor=none;top=0;left=0;bottom=0;right=0;pointerEvents=1;rounded=0;shadow=0;sketch=0;fontSize=11;strokeWidth=1;" vertex="1" parent="LRmMPDEXKQD5YRX8Q6Oj-232">
          <mxGeometry x="39" width="37" height="35" as="geometry">
            <mxRectangle width="37" height="35" as="alternateBounds" />
          </mxGeometry>
        </mxCell>
        <mxCell id="LRmMPDEXKQD5YRX8Q6Oj-235" value="" style="shape=partialRectangle;html=1;whiteSpace=wrap;connectable=0;overflow=hidden;fillColor=none;top=0;left=0;bottom=0;right=0;pointerEvents=1;rounded=0;shadow=0;sketch=0;fontSize=11;strokeWidth=1;" vertex="1" parent="LRmMPDEXKQD5YRX8Q6Oj-232">
          <mxGeometry x="76" width="39" height="35" as="geometry">
            <mxRectangle width="39" height="35" as="alternateBounds" />
          </mxGeometry>
        </mxCell>
        <mxCell id="LRmMPDEXKQD5YRX8Q6Oj-236" value="" style="shape=partialRectangle;html=1;whiteSpace=wrap;connectable=0;overflow=hidden;fillColor=none;top=0;left=0;bottom=0;right=0;pointerEvents=1;rounded=0;shadow=0;sketch=0;fontSize=11;strokeWidth=1;" vertex="1" parent="LRmMPDEXKQD5YRX8Q6Oj-232">
          <mxGeometry x="115" width="41" height="35" as="geometry">
            <mxRectangle width="41" height="35" as="alternateBounds" />
          </mxGeometry>
        </mxCell>
        <mxCell id="LRmMPDEXKQD5YRX8Q6Oj-237" value="1" style="shape=partialRectangle;html=1;whiteSpace=wrap;connectable=0;overflow=hidden;fillColor=none;top=0;left=0;bottom=0;right=0;pointerEvents=1;rounded=0;shadow=0;sketch=0;fontSize=11;strokeWidth=1;" vertex="1" parent="LRmMPDEXKQD5YRX8Q6Oj-232">
          <mxGeometry x="156" width="35" height="35" as="geometry">
            <mxRectangle width="35" height="35" as="alternateBounds" />
          </mxGeometry>
        </mxCell>
        <mxCell id="LRmMPDEXKQD5YRX8Q6Oj-238" value="" style="shape=partialRectangle;html=1;whiteSpace=wrap;connectable=0;overflow=hidden;fillColor=none;top=0;left=0;bottom=0;right=0;pointerEvents=1;rounded=0;shadow=0;sketch=0;fontSize=11;strokeWidth=1;" vertex="1" parent="LRmMPDEXKQD5YRX8Q6Oj-232">
          <mxGeometry x="191" width="39" height="35" as="geometry">
            <mxRectangle width="39" height="35" as="alternateBounds" />
          </mxGeometry>
        </mxCell>
        <mxCell id="LRmMPDEXKQD5YRX8Q6Oj-239" value="" style="shape=partialRectangle;html=1;whiteSpace=wrap;connectable=0;overflow=hidden;fillColor=none;top=0;left=0;bottom=0;right=0;pointerEvents=1;rounded=0;shadow=0;sketch=0;fontSize=11;strokeWidth=1;" vertex="1" parent="LRmMPDEXKQD5YRX8Q6Oj-232">
          <mxGeometry x="230" width="37" height="35" as="geometry">
            <mxRectangle width="37" height="35" as="alternateBounds" />
          </mxGeometry>
        </mxCell>
        <mxCell id="LRmMPDEXKQD5YRX8Q6Oj-240" value="" style="shape=tableRow;horizontal=0;startSize=0;swimlaneHead=0;swimlaneBody=0;top=0;left=0;bottom=0;right=0;collapsible=0;dropTarget=0;fillColor=none;points=[[0,0.5],[1,0.5]];portConstraint=eastwest;rounded=0;shadow=0;sketch=0;fontSize=11;strokeWidth=1;" vertex="1" parent="LRmMPDEXKQD5YRX8Q6Oj-207">
          <mxGeometry y="138" width="267" height="36" as="geometry" />
        </mxCell>
        <mxCell id="LRmMPDEXKQD5YRX8Q6Oj-241" value="" style="shape=partialRectangle;html=1;whiteSpace=wrap;connectable=0;overflow=hidden;fillColor=none;top=0;left=0;bottom=0;right=0;pointerEvents=1;rounded=0;shadow=0;sketch=0;fontSize=11;strokeWidth=1;" vertex="1" parent="LRmMPDEXKQD5YRX8Q6Oj-240">
          <mxGeometry width="39" height="36" as="geometry">
            <mxRectangle width="39" height="36" as="alternateBounds" />
          </mxGeometry>
        </mxCell>
        <mxCell id="LRmMPDEXKQD5YRX8Q6Oj-242" value="1" style="shape=partialRectangle;html=1;whiteSpace=wrap;connectable=0;overflow=hidden;fillColor=none;top=0;left=0;bottom=0;right=0;pointerEvents=1;rounded=0;shadow=0;sketch=0;fontSize=11;strokeWidth=1;" vertex="1" parent="LRmMPDEXKQD5YRX8Q6Oj-240">
          <mxGeometry x="39" width="37" height="36" as="geometry">
            <mxRectangle width="37" height="36" as="alternateBounds" />
          </mxGeometry>
        </mxCell>
        <mxCell id="LRmMPDEXKQD5YRX8Q6Oj-243" value="" style="shape=partialRectangle;html=1;whiteSpace=wrap;connectable=0;overflow=hidden;fillColor=none;top=0;left=0;bottom=0;right=0;pointerEvents=1;rounded=0;shadow=0;sketch=0;fontSize=11;strokeWidth=1;" vertex="1" parent="LRmMPDEXKQD5YRX8Q6Oj-240">
          <mxGeometry x="76" width="39" height="36" as="geometry">
            <mxRectangle width="39" height="36" as="alternateBounds" />
          </mxGeometry>
        </mxCell>
        <mxCell id="LRmMPDEXKQD5YRX8Q6Oj-244" value="" style="shape=partialRectangle;html=1;whiteSpace=wrap;connectable=0;overflow=hidden;fillColor=none;top=0;left=0;bottom=0;right=0;pointerEvents=1;rounded=0;shadow=0;sketch=0;fontSize=11;strokeWidth=1;" vertex="1" parent="LRmMPDEXKQD5YRX8Q6Oj-240">
          <mxGeometry x="115" width="41" height="36" as="geometry">
            <mxRectangle width="41" height="36" as="alternateBounds" />
          </mxGeometry>
        </mxCell>
        <mxCell id="LRmMPDEXKQD5YRX8Q6Oj-245" value="1" style="shape=partialRectangle;html=1;whiteSpace=wrap;connectable=0;overflow=hidden;fillColor=none;top=0;left=0;bottom=0;right=0;pointerEvents=1;rounded=0;shadow=0;sketch=0;fontSize=11;strokeWidth=1;" vertex="1" parent="LRmMPDEXKQD5YRX8Q6Oj-240">
          <mxGeometry x="156" width="35" height="36" as="geometry">
            <mxRectangle width="35" height="36" as="alternateBounds" />
          </mxGeometry>
        </mxCell>
        <mxCell id="LRmMPDEXKQD5YRX8Q6Oj-246" value="" style="shape=partialRectangle;html=1;whiteSpace=wrap;connectable=0;overflow=hidden;fillColor=none;top=0;left=0;bottom=0;right=0;pointerEvents=1;rounded=0;shadow=0;sketch=0;fontSize=11;strokeWidth=1;" vertex="1" parent="LRmMPDEXKQD5YRX8Q6Oj-240">
          <mxGeometry x="191" width="39" height="36" as="geometry">
            <mxRectangle width="39" height="36" as="alternateBounds" />
          </mxGeometry>
        </mxCell>
        <mxCell id="LRmMPDEXKQD5YRX8Q6Oj-247" value="1" style="shape=partialRectangle;html=1;whiteSpace=wrap;connectable=0;overflow=hidden;fillColor=none;top=0;left=0;bottom=0;right=0;pointerEvents=1;rounded=0;shadow=0;sketch=0;fontSize=11;strokeWidth=1;" vertex="1" parent="LRmMPDEXKQD5YRX8Q6Oj-240">
          <mxGeometry x="230" width="37" height="36" as="geometry">
            <mxRectangle width="37" height="36" as="alternateBounds" />
          </mxGeometry>
        </mxCell>
        <mxCell id="LRmMPDEXKQD5YRX8Q6Oj-248" value="&lt;b&gt;&lt;font style=&quot;font-size: 14px&quot;&gt;Drugs&lt;/font&gt;&lt;/b&gt;" style="text;html=1;align=center;verticalAlign=middle;resizable=0;points=[];autosize=1;strokeColor=none;fillColor=none;fontSize=11;" vertex="1" parent="1">
          <mxGeometry x="394" y="-503" width="50" height="17" as="geometry" />
        </mxCell>
        <mxCell id="LRmMPDEXKQD5YRX8Q6Oj-249" value="&lt;b&gt;&lt;font style=&quot;font-size: 16px&quot;&gt;Diseases&lt;/font&gt;&lt;/b&gt;" style="text;html=1;align=center;verticalAlign=middle;resizable=0;points=[];autosize=1;strokeColor=none;fillColor=none;fontSize=11;" vertex="1" parent="1">
          <mxGeometry x="544" y="-574" width="79" height="19" as="geometry" />
        </mxCell>
        <mxCell id="LRmMPDEXKQD5YRX8Q6Oj-250" value="&lt;span lang=&quot;EN-US&quot;&gt;&lt;font&gt;&lt;b&gt;&lt;font style=&quot;font-size: 16px&quot;&gt;Drug-Disease&amp;nbsp;Associations Matrix&lt;/font&gt;&lt;/b&gt;&lt;br&gt;&lt;/font&gt;&lt;/span&gt;" style="text;html=1;align=center;verticalAlign=middle;resizable=0;points=[];autosize=1;strokeColor=none;fillColor=none;fontSize=11;" vertex="1" parent="1">
          <mxGeometry x="443" y="-355" width="268" height="19" as="geometry" />
        </mxCell>
        <mxCell id="LRmMPDEXKQD5YRX8Q6Oj-251" value="" style="ellipse;whiteSpace=wrap;html=1;aspect=fixed;rounded=0;sketch=0;strokeWidth=1;fillColor=#dae8fc;strokeColor=#6c8ebf;gradientColor=#7ea6e0;" vertex="1" parent="1">
          <mxGeometry x="817" y="-510" width="25" height="25" as="geometry" />
        </mxCell>
        <mxCell id="LRmMPDEXKQD5YRX8Q6Oj-252" value="" style="ellipse;whiteSpace=wrap;html=1;aspect=fixed;rounded=0;sketch=0;strokeWidth=1;fillColor=#fff2cc;strokeColor=#d6b656;gradientColor=#ffd966;" vertex="1" parent="1">
          <mxGeometry x="886" y="-510" width="25" height="25" as="geometry" />
        </mxCell>
        <mxCell id="LRmMPDEXKQD5YRX8Q6Oj-253" value="" style="ellipse;whiteSpace=wrap;html=1;aspect=fixed;rounded=0;sketch=0;strokeWidth=1;fillColor=#dae8fc;strokeColor=#6c8ebf;gradientColor=#7ea6e0;" vertex="1" parent="1">
          <mxGeometry x="817" y="-467" width="25" height="25" as="geometry" />
        </mxCell>
        <mxCell id="LRmMPDEXKQD5YRX8Q6Oj-254" value="" style="ellipse;whiteSpace=wrap;html=1;aspect=fixed;rounded=0;sketch=0;strokeWidth=1;fillColor=#dae8fc;strokeColor=#6c8ebf;gradientColor=#7ea6e0;" vertex="1" parent="1">
          <mxGeometry x="817" y="-421" width="25" height="25" as="geometry" />
        </mxCell>
        <mxCell id="LRmMPDEXKQD5YRX8Q6Oj-255" value="" style="ellipse;whiteSpace=wrap;html=1;aspect=fixed;rounded=0;sketch=0;strokeWidth=1;fillColor=#fff2cc;strokeColor=#d6b656;gradientColor=#ffd966;" vertex="1" parent="1">
          <mxGeometry x="886" y="-421" width="25" height="25" as="geometry" />
        </mxCell>
        <mxCell id="LRmMPDEXKQD5YRX8Q6Oj-256" value="" style="ellipse;whiteSpace=wrap;html=1;aspect=fixed;rounded=0;sketch=0;strokeWidth=1;fillColor=#fff2cc;strokeColor=#d6b656;gradientColor=#ffd966;" vertex="1" parent="1">
          <mxGeometry x="886" y="-467" width="25" height="25" as="geometry" />
        </mxCell>
        <mxCell id="LRmMPDEXKQD5YRX8Q6Oj-257" value="&lt;font color=&quot;#000000&quot;&gt;&lt;b&gt;u&lt;/b&gt;&lt;/font&gt;" style="text;html=1;align=center;verticalAlign=middle;resizable=0;points=[];autosize=1;strokeColor=none;fillColor=none;fontSize=12;fontColor=#FF0000;" vertex="1" parent="1">
          <mxGeometry x="794" y="-463.5" width="17" height="18" as="geometry" />
        </mxCell>
        <mxCell id="LRmMPDEXKQD5YRX8Q6Oj-258" value="&lt;font color=&quot;#000000&quot;&gt;&lt;b&gt;v&lt;/b&gt;&lt;/font&gt;" style="text;html=1;align=center;verticalAlign=middle;resizable=0;points=[];autosize=1;strokeColor=none;fillColor=none;fontSize=12;fontColor=#FF0000;" vertex="1" parent="1">
          <mxGeometry x="919" y="-463.5" width="16" height="18" as="geometry" />
        </mxCell>
        <mxCell id="LRmMPDEXKQD5YRX8Q6Oj-259" value="&lt;b&gt;&lt;font style=&quot;font-size: 14px&quot;&gt;Drugs&lt;/font&gt;&lt;/b&gt;" style="text;html=1;align=center;verticalAlign=middle;resizable=0;points=[];autosize=1;strokeColor=none;fillColor=none;fontSize=11;" vertex="1" parent="1">
          <mxGeometry x="805.5" y="-541" width="50" height="17" as="geometry" />
        </mxCell>
        <mxCell id="LRmMPDEXKQD5YRX8Q6Oj-260" value="&lt;b&gt;&lt;font style=&quot;font-size: 14px&quot;&gt;Diseases&lt;/font&gt;&lt;/b&gt;" style="text;html=1;align=center;verticalAlign=middle;resizable=0;points=[];autosize=1;strokeColor=none;fillColor=none;fontSize=11;" vertex="1" parent="1">
          <mxGeometry x="869" y="-541" width="71" height="17" as="geometry" />
        </mxCell>
        <mxCell id="LRmMPDEXKQD5YRX8Q6Oj-261" value="" style="endArrow=none;html=1;rounded=1;labelBackgroundColor=none;sketch=0;fontSize=12;fontColor=#000000;strokeColor=#000000;strokeWidth=1;curved=0;exitX=0;exitY=0.5;exitDx=0;exitDy=0;entryX=1;entryY=0.5;entryDx=0;entryDy=0;" edge="1" parent="1" source="LRmMPDEXKQD5YRX8Q6Oj-255" target="LRmMPDEXKQD5YRX8Q6Oj-254">
          <mxGeometry width="50" height="50" relative="1" as="geometry">
            <mxPoint x="915.5" y="-444.5" as="sourcePoint" />
            <mxPoint x="862" y="-445" as="targetPoint" />
          </mxGeometry>
        </mxCell>
        <mxCell id="LRmMPDEXKQD5YRX8Q6Oj-262" value="" style="endArrow=none;html=1;rounded=1;labelBackgroundColor=none;sketch=0;fontSize=12;fontColor=#000000;strokeColor=#000000;strokeWidth=1;curved=0;exitX=0;exitY=0.5;exitDx=0;exitDy=0;entryX=1;entryY=0.5;entryDx=0;entryDy=0;" edge="1" parent="1" source="LRmMPDEXKQD5YRX8Q6Oj-252" target="LRmMPDEXKQD5YRX8Q6Oj-253">
          <mxGeometry width="50" height="50" relative="1" as="geometry">
            <mxPoint x="896.0000000000084" y="-398.5" as="sourcePoint" />
            <mxPoint x="851.9999999999916" y="-398.5" as="targetPoint" />
          </mxGeometry>
        </mxCell>
        <mxCell id="LRmMPDEXKQD5YRX8Q6Oj-263" value="" style="endArrow=none;html=1;rounded=1;labelBackgroundColor=none;sketch=0;fontSize=12;fontColor=#000000;strokeColor=#000000;strokeWidth=1;curved=0;exitX=0;exitY=0.5;exitDx=0;exitDy=0;entryX=1;entryY=0.5;entryDx=0;entryDy=0;" edge="1" parent="1" source="LRmMPDEXKQD5YRX8Q6Oj-255" target="LRmMPDEXKQD5YRX8Q6Oj-253">
          <mxGeometry width="50" height="50" relative="1" as="geometry">
            <mxPoint x="896" y="-487.5" as="sourcePoint" />
            <mxPoint x="852" y="-444.5" as="targetPoint" />
          </mxGeometry>
        </mxCell>
        <mxCell id="LRmMPDEXKQD5YRX8Q6Oj-264" value="" style="endArrow=none;html=1;rounded=1;labelBackgroundColor=none;sketch=0;fontSize=12;fontColor=#000000;strokeColor=#000000;strokeWidth=1;curved=0;exitX=0;exitY=0.5;exitDx=0;exitDy=0;entryX=1;entryY=0.5;entryDx=0;entryDy=0;" edge="1" parent="1" source="LRmMPDEXKQD5YRX8Q6Oj-252" target="LRmMPDEXKQD5YRX8Q6Oj-251">
          <mxGeometry width="50" height="50" relative="1" as="geometry">
            <mxPoint x="896.0000000000027" y="-487.5" as="sourcePoint" />
            <mxPoint x="851.9999999999973" y="-444.5" as="targetPoint" />
          </mxGeometry>
        </mxCell>
        <mxCell id="LRmMPDEXKQD5YRX8Q6Oj-265" value="" style="endArrow=none;html=1;rounded=1;labelBackgroundColor=none;sketch=0;fontSize=12;fontColor=#000000;strokeColor=#000000;strokeWidth=1;curved=0;exitX=0;exitY=0.5;exitDx=0;exitDy=0;entryX=1;entryY=0.5;entryDx=0;entryDy=0;" edge="1" parent="1" source="LRmMPDEXKQD5YRX8Q6Oj-256" target="LRmMPDEXKQD5YRX8Q6Oj-251">
          <mxGeometry width="50" height="50" relative="1" as="geometry">
            <mxPoint x="895.9999999999832" y="-487.5" as="sourcePoint" />
            <mxPoint x="851.9999999999975" y="-487.5" as="targetPoint" />
          </mxGeometry>
        </mxCell>
        <mxCell id="LRmMPDEXKQD5YRX8Q6Oj-266" value="" style="endArrow=none;html=1;rounded=1;labelBackgroundColor=none;sketch=0;fontSize=12;fontColor=#000000;strokeColor=#000000;strokeWidth=1;curved=0;exitX=0;exitY=0.5;exitDx=0;exitDy=0;" edge="1" parent="1" source="LRmMPDEXKQD5YRX8Q6Oj-256">
          <mxGeometry width="50" height="50" relative="1" as="geometry">
            <mxPoint x="895.9999999999832" y="-398.5" as="sourcePoint" />
            <mxPoint x="841.9999999999995" y="-408" as="targetPoint" />
          </mxGeometry>
        </mxCell>
        <mxCell id="LRmMPDEXKQD5YRX8Q6Oj-267" value="" style="shape=flexArrow;endArrow=classic;html=1;rounded=1;labelBackgroundColor=none;sketch=0;fontSize=9;fontColor=#FF0000;strokeColor=none;strokeWidth=1;curved=0;fillColor=#858585;gradientColor=#ffffff;endWidth=16.380952380952383;endSize=5.051428571428572;width=13.142857142857142;gradientDirection=north;" edge="1" parent="1">
          <mxGeometry width="50" height="50" relative="1" as="geometry">
            <mxPoint x="376" y="-462.5" as="sourcePoint" />
            <mxPoint x="431" y="-463.5" as="targetPoint" />
          </mxGeometry>
        </mxCell>
        <mxCell id="LRmMPDEXKQD5YRX8Q6Oj-268" value="&lt;b&gt;&lt;font style=&quot;font-size: 16px&quot;&gt;&lt;font color=&quot;#000000&quot;&gt;1-hop&amp;nbsp;&lt;/font&gt;&lt;span style=&quot;color: rgb(0 , 0 , 0)&quot;&gt;Neighborhood Subgraph of &lt;br&gt;Drug-Disease Pair&lt;/span&gt;&lt;/font&gt;&lt;/b&gt;&lt;font color=&quot;#000000&quot;&gt;&lt;br&gt;&lt;/font&gt;" style="text;html=1;align=center;verticalAlign=middle;resizable=0;points=[];autosize=1;strokeColor=none;fillColor=none;fontSize=9;fontColor=#FF0000;" vertex="1" parent="1">
          <mxGeometry x="739" y="-375" width="266" height="30" as="geometry" />
        </mxCell>
        <mxCell id="LRmMPDEXKQD5YRX8Q6Oj-269" value="" style="shape=flexArrow;endArrow=classic;html=1;rounded=1;labelBackgroundColor=none;sketch=0;fontSize=9;fontColor=#FF0000;strokeColor=none;strokeWidth=1;curved=0;fillColor=#858585;gradientColor=#ffffff;endWidth=16.380952380952383;endSize=5.576470588235295;width=10.588235294117647;gradientDirection=north;" edge="1" parent="1">
          <mxGeometry width="50" height="50" relative="1" as="geometry">
            <mxPoint x="739" y="-454" as="sourcePoint" />
            <mxPoint x="794" y="-455" as="targetPoint" />
          </mxGeometry>
        </mxCell>
        <mxCell id="LRmMPDEXKQD5YRX8Q6Oj-270" value="" style="rounded=1;whiteSpace=wrap;html=1;shadow=0;dashed=1;sketch=0;fontSize=11;strokeWidth=1;gradientColor=none;fillColor=none;strokeColor=#FF0000;" vertex="1" parent="1">
          <mxGeometry x="517" y="-551.5" width="207" height="114" as="geometry" />
        </mxCell>
        <mxCell id="LRmMPDEXKQD5YRX8Q6Oj-271" value="" style="endArrow=none;html=1;rounded=0;exitX=1;exitY=0.5;exitDx=0;exitDy=0;strokeColor=#FF0000;entryX=0;entryY=0.5;entryDx=0;entryDy=0;" edge="1" parent="1" source="LRmMPDEXKQD5YRX8Q6Oj-253" target="LRmMPDEXKQD5YRX8Q6Oj-256">
          <mxGeometry width="50" height="50" relative="1" as="geometry">
            <mxPoint x="846" y="-455" as="sourcePoint" />
            <mxPoint x="886" y="-455" as="targetPoint" />
          </mxGeometry>
        </mxCell>
      </root>
    </mxGraphModel>
  </diagram>
  <diagram id="5a6y1f6Vd2r99JSpRheK" name="第 2 页">
    <mxGraphModel dx="1966" dy="842" grid="1" gridSize="10" guides="1" tooltips="1" connect="1" arrows="1" fold="1" page="1" pageScale="1" pageWidth="1169" pageHeight="827" math="0" shadow="0">
      <root>
        <mxCell id="0" />
        <mxCell id="1" parent="0" />
        <mxCell id="htvxuuEL0ZNnEyeRjoAu-1" value="" style="rounded=1;whiteSpace=wrap;html=1;glass=1;fillColor=none;dashed=1;strokeWidth=1;shadow=0;arcSize=7;" vertex="1" parent="1">
          <mxGeometry x="711" y="38" width="353" height="430" as="geometry" />
        </mxCell>
        <mxCell id="htvxuuEL0ZNnEyeRjoAu-2" value="" style="rounded=1;whiteSpace=wrap;html=1;fontSize=14;fillColor=none;dashed=1;arcSize=7;" vertex="1" parent="1">
          <mxGeometry x="71" y="38" width="588" height="427.7" as="geometry" />
        </mxCell>
        <mxCell id="htvxuuEL0ZNnEyeRjoAu-3" value="" style="shape=table;startSize=0;container=1;collapsible=0;childLayout=tableLayout;rounded=0;shadow=0;sketch=0;fontSize=11;strokeWidth=1;" vertex="1" parent="1">
          <mxGeometry x="128" y="150.75" width="306" height="209.9052413137336" as="geometry" />
        </mxCell>
        <mxCell id="htvxuuEL0ZNnEyeRjoAu-4" value="" style="shape=tableRow;horizontal=0;startSize=0;swimlaneHead=0;swimlaneBody=0;top=0;left=0;bottom=0;right=0;collapsible=0;dropTarget=0;fillColor=none;points=[[0,0.5],[1,0.5]];portConstraint=eastwest;rounded=0;shadow=0;sketch=0;fontSize=11;strokeWidth=1;strokeColor=#000000;" vertex="1" parent="htvxuuEL0ZNnEyeRjoAu-3">
          <mxGeometry width="306" height="36" as="geometry" />
        </mxCell>
        <mxCell id="htvxuuEL0ZNnEyeRjoAu-5" value="" style="shape=partialRectangle;html=1;whiteSpace=wrap;connectable=0;overflow=hidden;fillColor=none;top=0;left=0;bottom=0;right=0;pointerEvents=1;rounded=0;shadow=0;sketch=0;fontSize=11;strokeWidth=1;" vertex="1" parent="htvxuuEL0ZNnEyeRjoAu-4">
          <mxGeometry width="39" height="36" as="geometry">
            <mxRectangle width="39" height="36" as="alternateBounds" />
          </mxGeometry>
        </mxCell>
        <mxCell id="htvxuuEL0ZNnEyeRjoAu-6" value="" style="shape=partialRectangle;html=1;whiteSpace=wrap;connectable=0;overflow=hidden;fillColor=none;top=0;left=0;bottom=0;right=0;pointerEvents=1;rounded=0;shadow=0;sketch=0;fontSize=11;strokeWidth=1;" vertex="1" parent="htvxuuEL0ZNnEyeRjoAu-4">
          <mxGeometry x="39" width="37" height="36" as="geometry">
            <mxRectangle width="37" height="36" as="alternateBounds" />
          </mxGeometry>
        </mxCell>
        <mxCell id="htvxuuEL0ZNnEyeRjoAu-7" value="1" style="shape=partialRectangle;html=1;whiteSpace=wrap;connectable=0;overflow=hidden;fillColor=#60a917;top=0;left=0;bottom=0;right=0;pointerEvents=1;rounded=0;shadow=0;sketch=0;fontSize=11;strokeWidth=1;fontColor=#ffffff;strokeColor=#2D7600;" vertex="1" parent="htvxuuEL0ZNnEyeRjoAu-4">
          <mxGeometry x="76" width="39" height="36" as="geometry">
            <mxRectangle width="39" height="36" as="alternateBounds" />
          </mxGeometry>
        </mxCell>
        <mxCell id="htvxuuEL0ZNnEyeRjoAu-8" value="1" style="shape=partialRectangle;html=1;whiteSpace=wrap;connectable=0;overflow=hidden;fillColor=#FF0000;top=0;left=0;bottom=0;right=0;pointerEvents=1;rounded=0;shadow=0;sketch=0;fontSize=11;strokeWidth=1;strokeColor=#2D7600;fontColor=#ffffff;" vertex="1" parent="htvxuuEL0ZNnEyeRjoAu-4">
          <mxGeometry x="115" width="41" height="36" as="geometry">
            <mxRectangle width="41" height="36" as="alternateBounds" />
          </mxGeometry>
        </mxCell>
        <mxCell id="htvxuuEL0ZNnEyeRjoAu-9" value="" style="shape=partialRectangle;html=1;whiteSpace=wrap;connectable=0;overflow=hidden;fillColor=none;top=0;left=0;bottom=0;right=0;pointerEvents=1;rounded=0;shadow=0;sketch=0;fontSize=11;strokeWidth=1;" vertex="1" parent="htvxuuEL0ZNnEyeRjoAu-4">
          <mxGeometry x="156" width="35" height="36" as="geometry">
            <mxRectangle width="35" height="36" as="alternateBounds" />
          </mxGeometry>
        </mxCell>
        <mxCell id="htvxuuEL0ZNnEyeRjoAu-10" value="1" style="shape=partialRectangle;html=1;whiteSpace=wrap;connectable=0;overflow=hidden;fillColor=#60a917;top=0;left=0;bottom=0;right=0;pointerEvents=1;rounded=0;shadow=0;sketch=0;fontSize=11;strokeWidth=1;strokeColor=#2D7600;fontColor=#ffffff;" vertex="1" parent="htvxuuEL0ZNnEyeRjoAu-4">
          <mxGeometry x="191" width="37" height="36" as="geometry">
            <mxRectangle width="37" height="36" as="alternateBounds" />
          </mxGeometry>
        </mxCell>
        <mxCell id="htvxuuEL0ZNnEyeRjoAu-11" value="" style="shape=partialRectangle;html=1;whiteSpace=wrap;connectable=0;overflow=hidden;top=0;left=0;bottom=0;right=0;pointerEvents=1;rounded=0;shadow=0;sketch=0;fontSize=11;strokeWidth=1;fillColor=none;" vertex="1" parent="htvxuuEL0ZNnEyeRjoAu-4">
          <mxGeometry x="228" width="39" height="36" as="geometry">
            <mxRectangle width="39" height="36" as="alternateBounds" />
          </mxGeometry>
        </mxCell>
        <mxCell id="htvxuuEL0ZNnEyeRjoAu-12" style="shape=partialRectangle;html=1;whiteSpace=wrap;connectable=0;overflow=hidden;top=0;left=0;bottom=0;right=0;pointerEvents=1;rounded=0;shadow=0;sketch=0;fontSize=11;strokeWidth=1;fillColor=none;" vertex="1" parent="htvxuuEL0ZNnEyeRjoAu-4">
          <mxGeometry x="267" width="39" height="36" as="geometry">
            <mxRectangle width="39" height="36" as="alternateBounds" />
          </mxGeometry>
        </mxCell>
        <mxCell id="htvxuuEL0ZNnEyeRjoAu-13" value="" style="shape=tableRow;horizontal=0;startSize=0;swimlaneHead=0;swimlaneBody=0;top=0;left=0;bottom=0;right=0;collapsible=0;dropTarget=0;fillColor=none;points=[[0,0.5],[1,0.5]];portConstraint=eastwest;rounded=0;shadow=0;sketch=0;fontSize=11;strokeWidth=1;" vertex="1" parent="htvxuuEL0ZNnEyeRjoAu-3">
          <mxGeometry y="36" width="306" height="31" as="geometry" />
        </mxCell>
        <mxCell id="htvxuuEL0ZNnEyeRjoAu-14" value="" style="shape=partialRectangle;html=1;whiteSpace=wrap;connectable=0;overflow=hidden;fillColor=none;top=0;left=0;bottom=0;right=0;pointerEvents=1;rounded=0;shadow=0;sketch=0;fontSize=11;strokeWidth=1;" vertex="1" parent="htvxuuEL0ZNnEyeRjoAu-13">
          <mxGeometry width="39" height="31" as="geometry">
            <mxRectangle width="39" height="31" as="alternateBounds" />
          </mxGeometry>
        </mxCell>
        <mxCell id="htvxuuEL0ZNnEyeRjoAu-15" value="" style="shape=partialRectangle;html=1;whiteSpace=wrap;connectable=0;overflow=hidden;fillColor=none;top=0;left=0;bottom=0;right=0;pointerEvents=1;rounded=0;shadow=0;sketch=0;fontSize=11;strokeWidth=1;" vertex="1" parent="htvxuuEL0ZNnEyeRjoAu-13">
          <mxGeometry x="39" width="37" height="31" as="geometry">
            <mxRectangle width="37" height="31" as="alternateBounds" />
          </mxGeometry>
        </mxCell>
        <mxCell id="htvxuuEL0ZNnEyeRjoAu-16" value="1" style="shape=partialRectangle;html=1;whiteSpace=wrap;connectable=0;overflow=hidden;top=0;left=0;bottom=0;right=0;pointerEvents=1;rounded=0;shadow=0;sketch=0;fontSize=11;strokeWidth=1;fillColor=#60a917;fontColor=#ffffff;strokeColor=#2D7600;" vertex="1" parent="htvxuuEL0ZNnEyeRjoAu-13">
          <mxGeometry x="76" width="39" height="31" as="geometry">
            <mxRectangle width="39" height="31" as="alternateBounds" />
          </mxGeometry>
        </mxCell>
        <mxCell id="htvxuuEL0ZNnEyeRjoAu-17" value="1" style="shape=partialRectangle;html=1;whiteSpace=wrap;connectable=0;overflow=hidden;fillColor=#60a917;top=0;left=0;bottom=0;right=0;pointerEvents=1;rounded=0;shadow=0;sketch=0;fontSize=11;strokeWidth=1;strokeColor=#2D7600;fontColor=#ffffff;" vertex="1" parent="htvxuuEL0ZNnEyeRjoAu-13">
          <mxGeometry x="115" width="41" height="31" as="geometry">
            <mxRectangle width="41" height="31" as="alternateBounds" />
          </mxGeometry>
        </mxCell>
        <mxCell id="htvxuuEL0ZNnEyeRjoAu-18" value="" style="shape=partialRectangle;html=1;whiteSpace=wrap;connectable=0;overflow=hidden;fillColor=none;top=0;left=0;bottom=0;right=0;pointerEvents=1;rounded=0;shadow=0;sketch=0;fontSize=11;strokeWidth=1;fontColor=#ffffff;strokeColor=#2D7600;" vertex="1" parent="htvxuuEL0ZNnEyeRjoAu-13">
          <mxGeometry x="156" width="35" height="31" as="geometry">
            <mxRectangle width="35" height="31" as="alternateBounds" />
          </mxGeometry>
        </mxCell>
        <mxCell id="htvxuuEL0ZNnEyeRjoAu-19" value="" style="shape=partialRectangle;html=1;whiteSpace=wrap;connectable=0;overflow=hidden;fillColor=none;top=0;left=0;bottom=0;right=0;pointerEvents=1;rounded=0;shadow=0;sketch=0;fontSize=11;strokeWidth=1;strokeColor=#2D7600;fontColor=#ffffff;" vertex="1" parent="htvxuuEL0ZNnEyeRjoAu-13">
          <mxGeometry x="191" width="37" height="31" as="geometry">
            <mxRectangle width="37" height="31" as="alternateBounds" />
          </mxGeometry>
        </mxCell>
        <mxCell id="htvxuuEL0ZNnEyeRjoAu-20" value="" style="shape=partialRectangle;html=1;whiteSpace=wrap;connectable=0;overflow=hidden;fillColor=none;top=0;left=0;bottom=0;right=0;pointerEvents=1;rounded=0;shadow=0;sketch=0;fontSize=11;strokeWidth=1;" vertex="1" parent="htvxuuEL0ZNnEyeRjoAu-13">
          <mxGeometry x="228" width="39" height="31" as="geometry">
            <mxRectangle width="39" height="31" as="alternateBounds" />
          </mxGeometry>
        </mxCell>
        <mxCell id="htvxuuEL0ZNnEyeRjoAu-21" value="" style="shape=partialRectangle;html=1;whiteSpace=wrap;connectable=0;overflow=hidden;fillColor=none;top=0;left=0;bottom=0;right=0;pointerEvents=1;rounded=0;shadow=0;sketch=0;fontSize=11;strokeWidth=1;" vertex="1" parent="htvxuuEL0ZNnEyeRjoAu-13">
          <mxGeometry x="267" width="39" height="31" as="geometry">
            <mxRectangle width="39" height="31" as="alternateBounds" />
          </mxGeometry>
        </mxCell>
        <mxCell id="htvxuuEL0ZNnEyeRjoAu-22" value="" style="shape=tableRow;horizontal=0;startSize=0;swimlaneHead=0;swimlaneBody=0;top=0;left=0;bottom=0;right=0;collapsible=0;dropTarget=0;fillColor=none;points=[[0,0.5],[1,0.5]];portConstraint=eastwest;rounded=0;shadow=0;sketch=0;fontSize=11;strokeWidth=1;" vertex="1" parent="htvxuuEL0ZNnEyeRjoAu-3">
          <mxGeometry y="67" width="306" height="36" as="geometry" />
        </mxCell>
        <mxCell id="htvxuuEL0ZNnEyeRjoAu-23" value="" style="shape=partialRectangle;html=1;whiteSpace=wrap;connectable=0;overflow=hidden;fillColor=none;top=0;left=0;bottom=0;right=0;pointerEvents=1;rounded=0;shadow=0;sketch=0;fontSize=11;strokeWidth=1;" vertex="1" parent="htvxuuEL0ZNnEyeRjoAu-22">
          <mxGeometry width="39" height="36" as="geometry">
            <mxRectangle width="39" height="36" as="alternateBounds" />
          </mxGeometry>
        </mxCell>
        <mxCell id="htvxuuEL0ZNnEyeRjoAu-24" value="" style="shape=partialRectangle;html=1;whiteSpace=wrap;connectable=0;overflow=hidden;fillColor=none;top=0;left=0;bottom=0;right=0;pointerEvents=1;rounded=0;shadow=0;sketch=0;fontSize=11;strokeWidth=1;" vertex="1" parent="htvxuuEL0ZNnEyeRjoAu-22">
          <mxGeometry x="39" width="37" height="36" as="geometry">
            <mxRectangle width="37" height="36" as="alternateBounds" />
          </mxGeometry>
        </mxCell>
        <mxCell id="htvxuuEL0ZNnEyeRjoAu-25" value="" style="shape=partialRectangle;html=1;whiteSpace=wrap;connectable=0;overflow=hidden;fillColor=none;top=0;left=0;bottom=0;right=0;pointerEvents=1;rounded=0;shadow=0;sketch=0;fontSize=11;strokeWidth=1;fontColor=#ffffff;strokeColor=#2D7600;" vertex="1" parent="htvxuuEL0ZNnEyeRjoAu-22">
          <mxGeometry x="76" width="39" height="36" as="geometry">
            <mxRectangle width="39" height="36" as="alternateBounds" />
          </mxGeometry>
        </mxCell>
        <mxCell id="htvxuuEL0ZNnEyeRjoAu-26" value="1" style="shape=partialRectangle;html=1;whiteSpace=wrap;connectable=0;overflow=hidden;fillColor=#60a917;top=0;left=0;bottom=0;right=0;pointerEvents=1;rounded=0;shadow=0;sketch=0;fontSize=11;strokeWidth=1;fontColor=#ffffff;strokeColor=#2D7600;" vertex="1" parent="htvxuuEL0ZNnEyeRjoAu-22">
          <mxGeometry x="115" width="41" height="36" as="geometry">
            <mxRectangle width="41" height="36" as="alternateBounds" />
          </mxGeometry>
        </mxCell>
        <mxCell id="htvxuuEL0ZNnEyeRjoAu-27" value="" style="shape=partialRectangle;html=1;whiteSpace=wrap;connectable=0;overflow=hidden;fillColor=none;top=0;left=0;bottom=0;right=0;pointerEvents=1;rounded=0;shadow=0;sketch=0;fontSize=11;strokeWidth=1;" vertex="1" parent="htvxuuEL0ZNnEyeRjoAu-22">
          <mxGeometry x="156" width="35" height="36" as="geometry">
            <mxRectangle width="35" height="36" as="alternateBounds" />
          </mxGeometry>
        </mxCell>
        <mxCell id="htvxuuEL0ZNnEyeRjoAu-28" value="1" style="shape=partialRectangle;html=1;whiteSpace=wrap;connectable=0;overflow=hidden;fillColor=#60a917;top=0;left=0;bottom=0;right=0;pointerEvents=1;rounded=0;shadow=0;sketch=0;fontSize=11;strokeWidth=1;strokeColor=#2D7600;fontColor=#ffffff;" vertex="1" parent="htvxuuEL0ZNnEyeRjoAu-22">
          <mxGeometry x="191" width="37" height="36" as="geometry">
            <mxRectangle width="37" height="36" as="alternateBounds" />
          </mxGeometry>
        </mxCell>
        <mxCell id="htvxuuEL0ZNnEyeRjoAu-29" value="" style="shape=partialRectangle;html=1;whiteSpace=wrap;connectable=0;overflow=hidden;fillColor=none;top=0;left=0;bottom=0;right=0;pointerEvents=1;rounded=0;shadow=0;sketch=0;fontSize=11;strokeWidth=1;strokeColor=#2D7600;fontColor=#ffffff;" vertex="1" parent="htvxuuEL0ZNnEyeRjoAu-22">
          <mxGeometry x="228" width="39" height="36" as="geometry">
            <mxRectangle width="39" height="36" as="alternateBounds" />
          </mxGeometry>
        </mxCell>
        <mxCell id="htvxuuEL0ZNnEyeRjoAu-30" style="shape=partialRectangle;html=1;whiteSpace=wrap;connectable=0;overflow=hidden;fillColor=none;top=0;left=0;bottom=0;right=0;pointerEvents=1;rounded=0;shadow=0;sketch=0;fontSize=11;strokeWidth=1;strokeColor=#2D7600;fontColor=#ffffff;" vertex="1" parent="htvxuuEL0ZNnEyeRjoAu-22">
          <mxGeometry x="267" width="39" height="36" as="geometry">
            <mxRectangle width="39" height="36" as="alternateBounds" />
          </mxGeometry>
        </mxCell>
        <mxCell id="htvxuuEL0ZNnEyeRjoAu-31" value="" style="shape=tableRow;horizontal=0;startSize=0;swimlaneHead=0;swimlaneBody=0;top=0;left=0;bottom=0;right=0;collapsible=0;dropTarget=0;fillColor=none;points=[[0,0.5],[1,0.5]];portConstraint=eastwest;rounded=0;shadow=0;sketch=0;fontSize=11;strokeWidth=1;" vertex="1" parent="htvxuuEL0ZNnEyeRjoAu-3">
          <mxGeometry y="103" width="306" height="35" as="geometry" />
        </mxCell>
        <mxCell id="htvxuuEL0ZNnEyeRjoAu-32" value="1" style="shape=partialRectangle;html=1;whiteSpace=wrap;connectable=0;overflow=hidden;fillColor=#60a917;top=0;left=0;bottom=0;right=0;pointerEvents=1;rounded=0;shadow=0;sketch=0;fontSize=11;strokeWidth=1;fontColor=#ffffff;strokeColor=#2D7600;" vertex="1" parent="htvxuuEL0ZNnEyeRjoAu-31">
          <mxGeometry width="39" height="35" as="geometry">
            <mxRectangle width="39" height="35" as="alternateBounds" />
          </mxGeometry>
        </mxCell>
        <mxCell id="htvxuuEL0ZNnEyeRjoAu-33" value="0" style="shape=partialRectangle;html=1;whiteSpace=wrap;connectable=0;overflow=hidden;fillColor=#FF0000;top=0;left=0;bottom=0;right=0;pointerEvents=1;rounded=0;shadow=0;sketch=0;fontSize=11;strokeWidth=1;" vertex="1" parent="htvxuuEL0ZNnEyeRjoAu-31">
          <mxGeometry x="39" width="37" height="35" as="geometry">
            <mxRectangle width="37" height="35" as="alternateBounds" />
          </mxGeometry>
        </mxCell>
        <mxCell id="htvxuuEL0ZNnEyeRjoAu-34" value="1" style="shape=partialRectangle;html=1;whiteSpace=wrap;connectable=0;overflow=hidden;fillColor=#60a917;top=0;left=0;bottom=0;right=0;pointerEvents=1;rounded=0;shadow=0;sketch=0;fontSize=11;strokeWidth=1;fontColor=#ffffff;strokeColor=#2D7600;" vertex="1" parent="htvxuuEL0ZNnEyeRjoAu-31">
          <mxGeometry x="76" width="39" height="35" as="geometry">
            <mxRectangle width="39" height="35" as="alternateBounds" />
          </mxGeometry>
        </mxCell>
        <mxCell id="htvxuuEL0ZNnEyeRjoAu-35" value="" style="shape=partialRectangle;html=1;whiteSpace=wrap;connectable=0;overflow=hidden;fillColor=none;top=0;left=0;bottom=0;right=0;pointerEvents=1;rounded=0;shadow=0;sketch=0;fontSize=11;strokeWidth=1;" vertex="1" parent="htvxuuEL0ZNnEyeRjoAu-31">
          <mxGeometry x="115" width="41" height="35" as="geometry">
            <mxRectangle width="41" height="35" as="alternateBounds" />
          </mxGeometry>
        </mxCell>
        <mxCell id="htvxuuEL0ZNnEyeRjoAu-36" value="" style="shape=partialRectangle;html=1;whiteSpace=wrap;connectable=0;overflow=hidden;fillColor=none;top=0;left=0;bottom=0;right=0;pointerEvents=1;rounded=0;shadow=0;sketch=0;fontSize=11;strokeWidth=1;" vertex="1" parent="htvxuuEL0ZNnEyeRjoAu-31">
          <mxGeometry x="156" width="35" height="35" as="geometry">
            <mxRectangle width="35" height="35" as="alternateBounds" />
          </mxGeometry>
        </mxCell>
        <mxCell id="htvxuuEL0ZNnEyeRjoAu-37" value="" style="shape=partialRectangle;html=1;whiteSpace=wrap;connectable=0;overflow=hidden;fillColor=none;top=0;left=0;bottom=0;right=0;pointerEvents=1;rounded=0;shadow=0;sketch=0;fontSize=11;strokeWidth=1;" vertex="1" parent="htvxuuEL0ZNnEyeRjoAu-31">
          <mxGeometry x="191" width="37" height="35" as="geometry">
            <mxRectangle width="37" height="35" as="alternateBounds" />
          </mxGeometry>
        </mxCell>
        <mxCell id="htvxuuEL0ZNnEyeRjoAu-38" value="" style="shape=partialRectangle;html=1;whiteSpace=wrap;connectable=0;overflow=hidden;fillColor=none;top=0;left=0;bottom=0;right=0;pointerEvents=1;rounded=0;shadow=0;sketch=0;fontSize=11;strokeWidth=1;" vertex="1" parent="htvxuuEL0ZNnEyeRjoAu-31">
          <mxGeometry x="228" width="39" height="35" as="geometry">
            <mxRectangle width="39" height="35" as="alternateBounds" />
          </mxGeometry>
        </mxCell>
        <mxCell id="htvxuuEL0ZNnEyeRjoAu-39" style="shape=partialRectangle;html=1;whiteSpace=wrap;connectable=0;overflow=hidden;fillColor=none;top=0;left=0;bottom=0;right=0;pointerEvents=1;rounded=0;shadow=0;sketch=0;fontSize=11;strokeWidth=1;" vertex="1" parent="htvxuuEL0ZNnEyeRjoAu-31">
          <mxGeometry x="267" width="39" height="35" as="geometry">
            <mxRectangle width="39" height="35" as="alternateBounds" />
          </mxGeometry>
        </mxCell>
        <mxCell id="htvxuuEL0ZNnEyeRjoAu-40" value="" style="shape=tableRow;horizontal=0;startSize=0;swimlaneHead=0;swimlaneBody=0;top=0;left=0;bottom=0;right=0;collapsible=0;dropTarget=0;fillColor=none;points=[[0,0.5],[1,0.5]];portConstraint=eastwest;rounded=0;shadow=0;sketch=0;fontSize=11;strokeWidth=1;" vertex="1" parent="htvxuuEL0ZNnEyeRjoAu-3">
          <mxGeometry y="138" width="306" height="36" as="geometry" />
        </mxCell>
        <mxCell id="htvxuuEL0ZNnEyeRjoAu-41" value="1" style="shape=partialRectangle;html=1;whiteSpace=wrap;connectable=0;overflow=hidden;fillColor=none;top=0;left=0;bottom=0;right=0;pointerEvents=1;rounded=0;shadow=0;sketch=0;fontSize=11;strokeWidth=1;" vertex="1" parent="htvxuuEL0ZNnEyeRjoAu-40">
          <mxGeometry width="39" height="36" as="geometry">
            <mxRectangle width="39" height="36" as="alternateBounds" />
          </mxGeometry>
        </mxCell>
        <mxCell id="htvxuuEL0ZNnEyeRjoAu-42" value="" style="shape=partialRectangle;html=1;whiteSpace=wrap;connectable=0;overflow=hidden;fillColor=none;top=0;left=0;bottom=0;right=0;pointerEvents=1;rounded=0;shadow=0;sketch=0;fontSize=11;strokeWidth=1;" vertex="1" parent="htvxuuEL0ZNnEyeRjoAu-40">
          <mxGeometry x="39" width="37" height="36" as="geometry">
            <mxRectangle width="37" height="36" as="alternateBounds" />
          </mxGeometry>
        </mxCell>
        <mxCell id="htvxuuEL0ZNnEyeRjoAu-43" value="" style="shape=partialRectangle;html=1;whiteSpace=wrap;connectable=0;overflow=hidden;fillColor=none;top=0;left=0;bottom=0;right=0;pointerEvents=1;rounded=0;shadow=0;sketch=0;fontSize=11;strokeWidth=1;" vertex="1" parent="htvxuuEL0ZNnEyeRjoAu-40">
          <mxGeometry x="76" width="39" height="36" as="geometry">
            <mxRectangle width="39" height="36" as="alternateBounds" />
          </mxGeometry>
        </mxCell>
        <mxCell id="htvxuuEL0ZNnEyeRjoAu-44" value="" style="shape=partialRectangle;html=1;whiteSpace=wrap;connectable=0;overflow=hidden;fillColor=none;top=0;left=0;bottom=0;right=0;pointerEvents=1;rounded=0;shadow=0;sketch=0;fontSize=11;strokeWidth=1;" vertex="1" parent="htvxuuEL0ZNnEyeRjoAu-40">
          <mxGeometry x="115" width="41" height="36" as="geometry">
            <mxRectangle width="41" height="36" as="alternateBounds" />
          </mxGeometry>
        </mxCell>
        <mxCell id="htvxuuEL0ZNnEyeRjoAu-45" value="" style="shape=partialRectangle;html=1;whiteSpace=wrap;connectable=0;overflow=hidden;fillColor=none;top=0;left=0;bottom=0;right=0;pointerEvents=1;rounded=0;shadow=0;sketch=0;fontSize=11;strokeWidth=1;" vertex="1" parent="htvxuuEL0ZNnEyeRjoAu-40">
          <mxGeometry x="156" width="35" height="36" as="geometry">
            <mxRectangle width="35" height="36" as="alternateBounds" />
          </mxGeometry>
        </mxCell>
        <mxCell id="htvxuuEL0ZNnEyeRjoAu-46" value="" style="shape=partialRectangle;html=1;whiteSpace=wrap;connectable=0;overflow=hidden;fillColor=none;top=0;left=0;bottom=0;right=0;pointerEvents=1;rounded=0;shadow=0;sketch=0;fontSize=11;strokeWidth=1;" vertex="1" parent="htvxuuEL0ZNnEyeRjoAu-40">
          <mxGeometry x="191" width="37" height="36" as="geometry">
            <mxRectangle width="37" height="36" as="alternateBounds" />
          </mxGeometry>
        </mxCell>
        <mxCell id="htvxuuEL0ZNnEyeRjoAu-47" value="1" style="shape=partialRectangle;html=1;whiteSpace=wrap;connectable=0;overflow=hidden;fillColor=none;top=0;left=0;bottom=0;right=0;pointerEvents=1;rounded=0;shadow=0;sketch=0;fontSize=11;strokeWidth=1;" vertex="1" parent="htvxuuEL0ZNnEyeRjoAu-40">
          <mxGeometry x="228" width="39" height="36" as="geometry">
            <mxRectangle width="39" height="36" as="alternateBounds" />
          </mxGeometry>
        </mxCell>
        <mxCell id="htvxuuEL0ZNnEyeRjoAu-48" style="shape=partialRectangle;html=1;whiteSpace=wrap;connectable=0;overflow=hidden;fillColor=none;top=0;left=0;bottom=0;right=0;pointerEvents=1;rounded=0;shadow=0;sketch=0;fontSize=11;strokeWidth=1;" vertex="1" parent="htvxuuEL0ZNnEyeRjoAu-40">
          <mxGeometry x="267" width="39" height="36" as="geometry">
            <mxRectangle width="39" height="36" as="alternateBounds" />
          </mxGeometry>
        </mxCell>
        <mxCell id="htvxuuEL0ZNnEyeRjoAu-49" style="shape=tableRow;horizontal=0;startSize=0;swimlaneHead=0;swimlaneBody=0;top=0;left=0;bottom=0;right=0;collapsible=0;dropTarget=0;fillColor=none;points=[[0,0.5],[1,0.5]];portConstraint=eastwest;rounded=0;shadow=0;sketch=0;fontSize=11;strokeWidth=1;" vertex="1" parent="htvxuuEL0ZNnEyeRjoAu-3">
          <mxGeometry y="174" width="306" height="36" as="geometry" />
        </mxCell>
        <mxCell id="htvxuuEL0ZNnEyeRjoAu-50" style="shape=partialRectangle;html=1;whiteSpace=wrap;connectable=0;overflow=hidden;fillColor=none;top=0;left=0;bottom=0;right=0;pointerEvents=1;rounded=0;shadow=0;sketch=0;fontSize=11;strokeWidth=1;" vertex="1" parent="htvxuuEL0ZNnEyeRjoAu-49">
          <mxGeometry width="39" height="36" as="geometry">
            <mxRectangle width="39" height="36" as="alternateBounds" />
          </mxGeometry>
        </mxCell>
        <mxCell id="htvxuuEL0ZNnEyeRjoAu-51" value="1" style="shape=partialRectangle;html=1;whiteSpace=wrap;connectable=0;overflow=hidden;fillColor=#60a917;top=0;left=0;bottom=0;right=0;pointerEvents=1;rounded=0;shadow=0;sketch=0;fontSize=11;strokeWidth=1;fontColor=#ffffff;strokeColor=#2D7600;" vertex="1" parent="htvxuuEL0ZNnEyeRjoAu-49">
          <mxGeometry x="39" width="37" height="36" as="geometry">
            <mxRectangle width="37" height="36" as="alternateBounds" />
          </mxGeometry>
        </mxCell>
        <mxCell id="htvxuuEL0ZNnEyeRjoAu-52" value="1" style="shape=partialRectangle;html=1;whiteSpace=wrap;connectable=0;overflow=hidden;fillColor=#60a917;top=0;left=0;bottom=0;right=0;pointerEvents=1;rounded=0;shadow=0;sketch=0;fontSize=11;strokeWidth=1;fontColor=#ffffff;strokeColor=#2D7600;" vertex="1" parent="htvxuuEL0ZNnEyeRjoAu-49">
          <mxGeometry x="76" width="39" height="36" as="geometry">
            <mxRectangle width="39" height="36" as="alternateBounds" />
          </mxGeometry>
        </mxCell>
        <mxCell id="htvxuuEL0ZNnEyeRjoAu-53" style="shape=partialRectangle;html=1;whiteSpace=wrap;connectable=0;overflow=hidden;fillColor=none;top=0;left=0;bottom=0;right=0;pointerEvents=1;rounded=0;shadow=0;sketch=0;fontSize=11;strokeWidth=1;" vertex="1" parent="htvxuuEL0ZNnEyeRjoAu-49">
          <mxGeometry x="115" width="41" height="36" as="geometry">
            <mxRectangle width="41" height="36" as="alternateBounds" />
          </mxGeometry>
        </mxCell>
        <mxCell id="htvxuuEL0ZNnEyeRjoAu-54" value="1" style="shape=partialRectangle;html=1;whiteSpace=wrap;connectable=0;overflow=hidden;fillColor=#60a917;top=0;left=0;bottom=0;right=0;pointerEvents=1;rounded=0;shadow=0;sketch=0;fontSize=11;strokeWidth=1;fontColor=#ffffff;strokeColor=#2D7600;" vertex="1" parent="htvxuuEL0ZNnEyeRjoAu-49">
          <mxGeometry x="156" width="35" height="36" as="geometry">
            <mxRectangle width="35" height="36" as="alternateBounds" />
          </mxGeometry>
        </mxCell>
        <mxCell id="htvxuuEL0ZNnEyeRjoAu-55" value="" style="shape=partialRectangle;html=1;whiteSpace=wrap;connectable=0;overflow=hidden;fillColor=none;top=0;left=0;bottom=0;right=0;pointerEvents=1;rounded=0;shadow=0;sketch=0;fontSize=11;strokeWidth=1;" vertex="1" parent="htvxuuEL0ZNnEyeRjoAu-49">
          <mxGeometry x="191" width="37" height="36" as="geometry">
            <mxRectangle width="37" height="36" as="alternateBounds" />
          </mxGeometry>
        </mxCell>
        <mxCell id="htvxuuEL0ZNnEyeRjoAu-56" style="shape=partialRectangle;html=1;whiteSpace=wrap;connectable=0;overflow=hidden;fillColor=none;top=0;left=0;bottom=0;right=0;pointerEvents=1;rounded=0;shadow=0;sketch=0;fontSize=11;strokeWidth=1;" vertex="1" parent="htvxuuEL0ZNnEyeRjoAu-49">
          <mxGeometry x="228" width="39" height="36" as="geometry">
            <mxRectangle width="39" height="36" as="alternateBounds" />
          </mxGeometry>
        </mxCell>
        <mxCell id="htvxuuEL0ZNnEyeRjoAu-57" style="shape=partialRectangle;html=1;whiteSpace=wrap;connectable=0;overflow=hidden;fillColor=none;top=0;left=0;bottom=0;right=0;pointerEvents=1;rounded=0;shadow=0;sketch=0;fontSize=11;strokeWidth=1;" vertex="1" parent="htvxuuEL0ZNnEyeRjoAu-49">
          <mxGeometry x="267" width="39" height="36" as="geometry">
            <mxRectangle width="39" height="36" as="alternateBounds" />
          </mxGeometry>
        </mxCell>
        <mxCell id="htvxuuEL0ZNnEyeRjoAu-58" value="&lt;b&gt;&lt;font style=&quot;font-size: 14px&quot;&gt;Drugs&lt;/font&gt;&lt;/b&gt;" style="text;html=1;align=center;verticalAlign=middle;resizable=0;points=[];autosize=1;strokeColor=none;fillColor=none;fontSize=11;" vertex="1" parent="1">
          <mxGeometry x="78" y="222" width="50" height="17" as="geometry" />
        </mxCell>
        <mxCell id="htvxuuEL0ZNnEyeRjoAu-59" value="&lt;b&gt;&lt;font style=&quot;font-size: 14px&quot;&gt;Diseases&lt;/font&gt;&lt;/b&gt;" style="text;html=1;align=center;verticalAlign=middle;resizable=0;points=[];autosize=1;strokeColor=none;fillColor=none;fontSize=11;" vertex="1" parent="1">
          <mxGeometry x="248" y="121" width="71" height="18" as="geometry" />
        </mxCell>
        <mxCell id="htvxuuEL0ZNnEyeRjoAu-60" value="&lt;span lang=&quot;EN-US&quot;&gt;&lt;font&gt;&lt;b&gt;&lt;font style=&quot;font-size: 16px&quot;&gt;Drug-Disease&amp;nbsp;Associations Matrix&lt;/font&gt;&lt;/b&gt;&lt;br&gt;&lt;/font&gt;&lt;/span&gt;" style="text;html=1;align=center;verticalAlign=middle;resizable=0;points=[];autosize=1;strokeColor=none;fillColor=none;fontSize=11;" vertex="1" parent="1">
          <mxGeometry x="150" y="388.25" width="268" height="19" as="geometry" />
        </mxCell>
        <mxCell id="htvxuuEL0ZNnEyeRjoAu-61" value="" style="ellipse;whiteSpace=wrap;html=1;aspect=fixed;rounded=0;sketch=0;strokeWidth=1;fillColor=#dae8fc;strokeColor=#6c8ebf;gradientColor=#7ea6e0;" vertex="1" parent="1">
          <mxGeometry x="516" y="99" width="25" height="25" as="geometry" />
        </mxCell>
        <mxCell id="htvxuuEL0ZNnEyeRjoAu-62" value="" style="ellipse;whiteSpace=wrap;html=1;aspect=fixed;rounded=0;sketch=0;strokeWidth=1;fillColor=#fff2cc;strokeColor=#d6b656;gradientColor=#ffd966;" vertex="1" parent="1">
          <mxGeometry x="585" y="99" width="25" height="25" as="geometry" />
        </mxCell>
        <mxCell id="htvxuuEL0ZNnEyeRjoAu-63" value="" style="ellipse;whiteSpace=wrap;html=1;aspect=fixed;rounded=0;sketch=0;strokeWidth=1;fillColor=#dae8fc;strokeColor=#6c8ebf;gradientColor=#7ea6e0;" vertex="1" parent="1">
          <mxGeometry x="516" y="142" width="25" height="25" as="geometry" />
        </mxCell>
        <mxCell id="htvxuuEL0ZNnEyeRjoAu-64" value="" style="ellipse;whiteSpace=wrap;html=1;aspect=fixed;rounded=0;sketch=0;strokeWidth=1;fillColor=#dae8fc;strokeColor=#6c8ebf;gradientColor=#7ea6e0;" vertex="1" parent="1">
          <mxGeometry x="516" y="188" width="25" height="25" as="geometry" />
        </mxCell>
        <mxCell id="htvxuuEL0ZNnEyeRjoAu-65" value="" style="ellipse;whiteSpace=wrap;html=1;aspect=fixed;rounded=0;sketch=0;strokeWidth=1;fillColor=#fff2cc;strokeColor=#d6b656;gradientColor=#ffd966;" vertex="1" parent="1">
          <mxGeometry x="585" y="188" width="25" height="25" as="geometry" />
        </mxCell>
        <mxCell id="htvxuuEL0ZNnEyeRjoAu-66" value="" style="ellipse;whiteSpace=wrap;html=1;aspect=fixed;rounded=0;sketch=0;strokeWidth=1;fillColor=#fff2cc;strokeColor=#d6b656;gradientColor=#ffd966;" vertex="1" parent="1">
          <mxGeometry x="585" y="142" width="25" height="25" as="geometry" />
        </mxCell>
        <mxCell id="htvxuuEL0ZNnEyeRjoAu-67" value="&lt;font color=&quot;#000000&quot;&gt;&lt;b&gt;u&lt;/b&gt;&lt;/font&gt;" style="text;html=1;align=center;verticalAlign=middle;resizable=0;points=[];autosize=1;strokeColor=none;fillColor=none;fontSize=12;fontColor=#FF0000;" vertex="1" parent="1">
          <mxGeometry x="493" y="145.5" width="17" height="18" as="geometry" />
        </mxCell>
        <mxCell id="htvxuuEL0ZNnEyeRjoAu-68" value="&lt;font color=&quot;#000000&quot;&gt;&lt;b&gt;v&lt;/b&gt;&lt;/font&gt;" style="text;html=1;align=center;verticalAlign=middle;resizable=0;points=[];autosize=1;strokeColor=none;fillColor=none;fontSize=12;fontColor=#FF0000;" vertex="1" parent="1">
          <mxGeometry x="616" y="145.5" width="16" height="18" as="geometry" />
        </mxCell>
        <mxCell id="htvxuuEL0ZNnEyeRjoAu-69" value="&lt;b&gt;&lt;font style=&quot;font-size: 14px&quot;&gt;Drugs&lt;/font&gt;&lt;/b&gt;" style="text;html=1;align=center;verticalAlign=middle;resizable=0;points=[];autosize=1;strokeColor=none;fillColor=none;fontSize=11;" vertex="1" parent="1">
          <mxGeometry x="504.5" y="68" width="50" height="17" as="geometry" />
        </mxCell>
        <mxCell id="htvxuuEL0ZNnEyeRjoAu-70" value="&lt;b&gt;&lt;font style=&quot;font-size: 14px&quot;&gt;Diseases&lt;/font&gt;&lt;/b&gt;" style="text;html=1;align=center;verticalAlign=middle;resizable=0;points=[];autosize=1;strokeColor=none;fillColor=none;fontSize=11;" vertex="1" parent="1">
          <mxGeometry x="568" y="68" width="71" height="17" as="geometry" />
        </mxCell>
        <mxCell id="htvxuuEL0ZNnEyeRjoAu-71" value="" style="endArrow=none;html=1;rounded=1;labelBackgroundColor=none;sketch=0;fontSize=12;fontColor=#000000;strokeColor=#000000;strokeWidth=1;curved=0;exitX=0;exitY=0.5;exitDx=0;exitDy=0;entryX=1;entryY=0.5;entryDx=0;entryDy=0;" edge="1" parent="1" source="htvxuuEL0ZNnEyeRjoAu-65" target="htvxuuEL0ZNnEyeRjoAu-64">
          <mxGeometry width="50" height="50" relative="1" as="geometry">
            <mxPoint x="614.5" y="164.5" as="sourcePoint" />
            <mxPoint x="561" y="164" as="targetPoint" />
          </mxGeometry>
        </mxCell>
        <mxCell id="htvxuuEL0ZNnEyeRjoAu-72" value="" style="endArrow=none;html=1;rounded=1;labelBackgroundColor=none;sketch=0;fontSize=12;fontColor=#000000;strokeColor=#000000;strokeWidth=1;curved=0;exitX=0;exitY=0.5;exitDx=0;exitDy=0;entryX=1;entryY=0.5;entryDx=0;entryDy=0;" edge="1" parent="1" source="htvxuuEL0ZNnEyeRjoAu-62" target="htvxuuEL0ZNnEyeRjoAu-63">
          <mxGeometry width="50" height="50" relative="1" as="geometry">
            <mxPoint x="595.0000000000084" y="210.5" as="sourcePoint" />
            <mxPoint x="550.9999999999916" y="210.5" as="targetPoint" />
          </mxGeometry>
        </mxCell>
        <mxCell id="htvxuuEL0ZNnEyeRjoAu-73" value="" style="endArrow=none;html=1;rounded=1;labelBackgroundColor=none;sketch=0;fontSize=12;fontColor=#000000;strokeColor=#000000;strokeWidth=1;curved=0;exitX=0;exitY=0.5;exitDx=0;exitDy=0;entryX=1;entryY=0.5;entryDx=0;entryDy=0;" edge="1" parent="1" source="htvxuuEL0ZNnEyeRjoAu-65" target="htvxuuEL0ZNnEyeRjoAu-63">
          <mxGeometry width="50" height="50" relative="1" as="geometry">
            <mxPoint x="595" y="121.5" as="sourcePoint" />
            <mxPoint x="551" y="164.5" as="targetPoint" />
          </mxGeometry>
        </mxCell>
        <mxCell id="htvxuuEL0ZNnEyeRjoAu-74" value="" style="endArrow=none;html=1;rounded=1;labelBackgroundColor=none;sketch=0;fontSize=12;fontColor=#000000;strokeColor=#000000;strokeWidth=1;curved=0;exitX=0;exitY=0.5;exitDx=0;exitDy=0;entryX=1;entryY=0.5;entryDx=0;entryDy=0;" edge="1" parent="1" source="htvxuuEL0ZNnEyeRjoAu-62" target="htvxuuEL0ZNnEyeRjoAu-61">
          <mxGeometry width="50" height="50" relative="1" as="geometry">
            <mxPoint x="595.0000000000027" y="121.5" as="sourcePoint" />
            <mxPoint x="550.9999999999973" y="164.5" as="targetPoint" />
          </mxGeometry>
        </mxCell>
        <mxCell id="htvxuuEL0ZNnEyeRjoAu-75" value="" style="endArrow=none;html=1;rounded=1;labelBackgroundColor=none;sketch=0;fontSize=12;fontColor=#000000;strokeColor=#000000;strokeWidth=1;curved=0;exitX=0;exitY=0.5;exitDx=0;exitDy=0;entryX=1;entryY=0.5;entryDx=0;entryDy=0;" edge="1" parent="1" source="htvxuuEL0ZNnEyeRjoAu-66" target="htvxuuEL0ZNnEyeRjoAu-61">
          <mxGeometry width="50" height="50" relative="1" as="geometry">
            <mxPoint x="594.9999999999832" y="121.5" as="sourcePoint" />
            <mxPoint x="550.9999999999975" y="121.5" as="targetPoint" />
          </mxGeometry>
        </mxCell>
        <mxCell id="htvxuuEL0ZNnEyeRjoAu-76" value="" style="endArrow=none;html=1;rounded=1;labelBackgroundColor=none;sketch=0;fontSize=12;fontColor=#000000;strokeColor=#000000;strokeWidth=1;curved=0;exitX=0;exitY=0.5;exitDx=0;exitDy=0;" edge="1" parent="1" source="htvxuuEL0ZNnEyeRjoAu-66">
          <mxGeometry width="50" height="50" relative="1" as="geometry">
            <mxPoint x="594.9999999999832" y="210.5" as="sourcePoint" />
            <mxPoint x="540.9999999999995" y="201" as="targetPoint" />
          </mxGeometry>
        </mxCell>
        <mxCell id="htvxuuEL0ZNnEyeRjoAu-77" value="&lt;font color=&quot;#000000&quot;&gt;&lt;b&gt;&lt;font style=&quot;font-size: 14px&quot;&gt;Positive Sample&lt;/font&gt;&lt;/b&gt;&lt;br&gt;&lt;/font&gt;" style="text;html=1;align=center;verticalAlign=middle;resizable=0;points=[];autosize=1;strokeColor=none;fillColor=none;fontSize=9;fontColor=#FF0000;" vertex="1" parent="1">
          <mxGeometry x="504.5" y="230" width="118" height="16" as="geometry" />
        </mxCell>
        <mxCell id="htvxuuEL0ZNnEyeRjoAu-78" value="" style="endArrow=none;html=1;rounded=0;exitX=1;exitY=0.5;exitDx=0;exitDy=0;entryX=0;entryY=0.5;entryDx=0;entryDy=0;strokeColor=#FF0000;" edge="1" parent="1" source="htvxuuEL0ZNnEyeRjoAu-63" target="htvxuuEL0ZNnEyeRjoAu-66">
          <mxGeometry width="50" height="50" relative="1" as="geometry">
            <mxPoint x="388" y="133" as="sourcePoint" />
            <mxPoint x="438" y="83" as="targetPoint" />
          </mxGeometry>
        </mxCell>
        <mxCell id="htvxuuEL0ZNnEyeRjoAu-79" value="" style="rounded=1;whiteSpace=wrap;html=1;shadow=0;dashed=1;sketch=0;fontSize=11;strokeWidth=1;gradientColor=none;fillColor=none;strokeColor=#FF0000;" vertex="1" parent="1">
          <mxGeometry x="198" y="145.5" width="205" height="111.5" as="geometry" />
        </mxCell>
        <mxCell id="htvxuuEL0ZNnEyeRjoAu-80" value="" style="ellipse;whiteSpace=wrap;html=1;aspect=fixed;rounded=0;sketch=0;strokeWidth=1;fillColor=#dae8fc;strokeColor=#6c8ebf;gradientColor=#7ea6e0;" vertex="1" parent="1">
          <mxGeometry x="518.5" y="369" width="25" height="25" as="geometry" />
        </mxCell>
        <mxCell id="htvxuuEL0ZNnEyeRjoAu-81" value="" style="ellipse;whiteSpace=wrap;html=1;aspect=fixed;rounded=0;sketch=0;strokeWidth=1;fillColor=#fff2cc;strokeColor=#d6b656;gradientColor=#ffd966;" vertex="1" parent="1">
          <mxGeometry x="587.5" y="298" width="25" height="25" as="geometry" />
        </mxCell>
        <mxCell id="htvxuuEL0ZNnEyeRjoAu-82" value="" style="ellipse;whiteSpace=wrap;html=1;aspect=fixed;rounded=0;sketch=0;strokeWidth=1;fillColor=#dae8fc;strokeColor=#6c8ebf;gradientColor=#7ea6e0;" vertex="1" parent="1">
          <mxGeometry x="518.5" y="333" width="25" height="25" as="geometry" />
        </mxCell>
        <mxCell id="htvxuuEL0ZNnEyeRjoAu-83" value="" style="ellipse;whiteSpace=wrap;html=1;aspect=fixed;rounded=0;sketch=0;strokeWidth=1;fillColor=#fff2cc;strokeColor=#d6b656;gradientColor=#ffd966;" vertex="1" parent="1">
          <mxGeometry x="587.5" y="369" width="25" height="25" as="geometry" />
        </mxCell>
        <mxCell id="htvxuuEL0ZNnEyeRjoAu-84" value="" style="ellipse;whiteSpace=wrap;html=1;aspect=fixed;rounded=0;sketch=0;strokeWidth=1;fillColor=#fff2cc;strokeColor=#d6b656;gradientColor=#ffd966;" vertex="1" parent="1">
          <mxGeometry x="587.5" y="333" width="25" height="25" as="geometry" />
        </mxCell>
        <mxCell id="htvxuuEL0ZNnEyeRjoAu-85" value="&lt;font color=&quot;#000000&quot;&gt;&lt;b&gt;u&lt;/b&gt;&lt;/font&gt;" style="text;html=1;align=center;verticalAlign=middle;resizable=0;points=[];autosize=1;strokeColor=none;fillColor=none;fontSize=12;fontColor=#FF0000;" vertex="1" parent="1">
          <mxGeometry x="495.5" y="336.5" width="17" height="18" as="geometry" />
        </mxCell>
        <mxCell id="htvxuuEL0ZNnEyeRjoAu-86" value="&lt;font color=&quot;#000000&quot;&gt;&lt;b&gt;v&lt;/b&gt;&lt;/font&gt;" style="text;html=1;align=center;verticalAlign=middle;resizable=0;points=[];autosize=1;strokeColor=none;fillColor=none;fontSize=12;fontColor=#FF0000;" vertex="1" parent="1">
          <mxGeometry x="619.5" y="336.5" width="16" height="18" as="geometry" />
        </mxCell>
        <mxCell id="htvxuuEL0ZNnEyeRjoAu-87" value="&lt;b&gt;&lt;font style=&quot;font-size: 14px&quot;&gt;Drugs&lt;/font&gt;&lt;/b&gt;" style="text;html=1;align=center;verticalAlign=middle;resizable=0;points=[];autosize=1;strokeColor=none;fillColor=none;fontSize=11;" vertex="1" parent="1">
          <mxGeometry x="501" y="273" width="50" height="17" as="geometry" />
        </mxCell>
        <mxCell id="htvxuuEL0ZNnEyeRjoAu-88" value="&lt;b&gt;&lt;font style=&quot;font-size: 14px&quot;&gt;Diseases&lt;/font&gt;&lt;/b&gt;" style="text;html=1;align=center;verticalAlign=middle;resizable=0;points=[];autosize=1;strokeColor=none;fillColor=none;fontSize=11;" vertex="1" parent="1">
          <mxGeometry x="568" y="273" width="71" height="17" as="geometry" />
        </mxCell>
        <mxCell id="htvxuuEL0ZNnEyeRjoAu-89" value="" style="ellipse;whiteSpace=wrap;html=1;aspect=fixed;rounded=0;sketch=0;strokeWidth=1;fillColor=#fff2cc;strokeColor=#d6b656;gradientColor=#ffd966;" vertex="1" parent="1">
          <mxGeometry x="587.5" y="405" width="25" height="25" as="geometry" />
        </mxCell>
        <mxCell id="htvxuuEL0ZNnEyeRjoAu-90" value="" style="endArrow=none;html=1;rounded=0;strokeColor=#000000;exitX=1;exitY=0.5;exitDx=0;exitDy=0;entryX=0;entryY=0.5;entryDx=0;entryDy=0;" edge="1" parent="1" source="htvxuuEL0ZNnEyeRjoAu-80" target="htvxuuEL0ZNnEyeRjoAu-83">
          <mxGeometry width="50" height="50" relative="1" as="geometry">
            <mxPoint x="545.5" y="385" as="sourcePoint" />
            <mxPoint x="595.5" y="335" as="targetPoint" />
          </mxGeometry>
        </mxCell>
        <mxCell id="htvxuuEL0ZNnEyeRjoAu-91" value="" style="endArrow=none;html=1;rounded=0;strokeColor=#000000;exitX=1;exitY=0.5;exitDx=0;exitDy=0;entryX=0;entryY=0.5;entryDx=0;entryDy=0;" edge="1" parent="1" source="htvxuuEL0ZNnEyeRjoAu-82" target="htvxuuEL0ZNnEyeRjoAu-81">
          <mxGeometry width="50" height="50" relative="1" as="geometry">
            <mxPoint x="524.5" y="305" as="sourcePoint" />
            <mxPoint x="574.5" y="255" as="targetPoint" />
          </mxGeometry>
        </mxCell>
        <mxCell id="htvxuuEL0ZNnEyeRjoAu-92" value="" style="endArrow=none;html=1;rounded=0;strokeColor=#000000;exitX=1;exitY=0.5;exitDx=0;exitDy=0;entryX=0;entryY=0.5;entryDx=0;entryDy=0;" edge="1" parent="1" source="htvxuuEL0ZNnEyeRjoAu-82" target="htvxuuEL0ZNnEyeRjoAu-83">
          <mxGeometry width="50" height="50" relative="1" as="geometry">
            <mxPoint x="586.5" y="404" as="sourcePoint" />
            <mxPoint x="636.5" y="354" as="targetPoint" />
          </mxGeometry>
        </mxCell>
        <mxCell id="htvxuuEL0ZNnEyeRjoAu-93" value="" style="endArrow=none;html=1;rounded=0;strokeColor=#000000;entryX=0;entryY=0.5;entryDx=0;entryDy=0;exitX=1;exitY=0.5;exitDx=0;exitDy=0;" edge="1" parent="1" source="htvxuuEL0ZNnEyeRjoAu-80" target="htvxuuEL0ZNnEyeRjoAu-89">
          <mxGeometry width="50" height="50" relative="1" as="geometry">
            <mxPoint x="653.5" y="296" as="sourcePoint" />
            <mxPoint x="703.5" y="246" as="targetPoint" />
          </mxGeometry>
        </mxCell>
        <mxCell id="htvxuuEL0ZNnEyeRjoAu-94" value="" style="endArrow=none;html=1;rounded=0;strokeColor=#000000;exitX=1;exitY=0.5;exitDx=0;exitDy=0;entryX=0;entryY=0.5;entryDx=0;entryDy=0;" edge="1" parent="1" source="htvxuuEL0ZNnEyeRjoAu-80" target="htvxuuEL0ZNnEyeRjoAu-84">
          <mxGeometry width="50" height="50" relative="1" as="geometry">
            <mxPoint x="543.5" y="382" as="sourcePoint" />
            <mxPoint x="597.5" y="329" as="targetPoint" />
          </mxGeometry>
        </mxCell>
        <mxCell id="htvxuuEL0ZNnEyeRjoAu-95" value="" style="rounded=1;whiteSpace=wrap;html=1;shadow=0;dashed=1;sketch=0;fontSize=11;strokeWidth=1;gradientColor=none;fillColor=none;strokeColor=#FF0000;" vertex="1" parent="1">
          <mxGeometry x="119" y="249" width="203" height="118" as="geometry" />
        </mxCell>
        <mxCell id="htvxuuEL0ZNnEyeRjoAu-96" value="" style="endArrow=classic;html=1;rounded=0;strokeColor=#000000;" edge="1" parent="1">
          <mxGeometry width="50" height="50" relative="1" as="geometry">
            <mxPoint x="409" y="195.75" as="sourcePoint" />
            <mxPoint x="487" y="172.5" as="targetPoint" />
          </mxGeometry>
        </mxCell>
        <mxCell id="htvxuuEL0ZNnEyeRjoAu-97" value="" style="endArrow=classic;html=1;rounded=0;strokeColor=#000000;" edge="1" parent="1">
          <mxGeometry width="50" height="50" relative="1" as="geometry">
            <mxPoint x="338" y="305.75" as="sourcePoint" />
            <mxPoint x="488" y="358.5" as="targetPoint" />
          </mxGeometry>
        </mxCell>
        <mxCell id="htvxuuEL0ZNnEyeRjoAu-98" value="&lt;font color=&quot;#000000&quot;&gt;&lt;b&gt;&lt;font style=&quot;font-size: 14px&quot;&gt;Negative Sample&lt;/font&gt;&lt;/b&gt;&lt;br&gt;&lt;/font&gt;" style="text;html=1;align=center;verticalAlign=middle;resizable=0;points=[];autosize=1;strokeColor=none;fillColor=none;fontSize=9;fontColor=#FF0000;" vertex="1" parent="1">
          <mxGeometry x="501" y="436" width="122" height="16" as="geometry" />
        </mxCell>
        <mxCell id="htvxuuEL0ZNnEyeRjoAu-99" value="" style="shape=flexArrow;endArrow=classic;html=1;rounded=1;labelBackgroundColor=none;sketch=0;fontSize=9;fontColor=#FF0000;strokeColor=none;strokeWidth=1;curved=0;fillColor=#858585;gradientColor=#ffffff;endWidth=8.19047619047619;endSize=5.523809523809524;width=4.285714285714286;gradientDirection=north;" edge="1" parent="1">
          <mxGeometry width="50" height="50" relative="1" as="geometry">
            <mxPoint x="665" y="259" as="sourcePoint" />
            <mxPoint x="706" y="259" as="targetPoint" />
          </mxGeometry>
        </mxCell>
        <mxCell id="htvxuuEL0ZNnEyeRjoAu-100" value="1" style="ellipse;whiteSpace=wrap;html=1;aspect=fixed;rounded=0;sketch=0;strokeWidth=1;fillColor=#dae8fc;strokeColor=#6c8ebf;gradientColor=#7ea6e0;" vertex="1" parent="1">
          <mxGeometry x="759.75" y="170" width="25" height="25" as="geometry" />
        </mxCell>
        <mxCell id="htvxuuEL0ZNnEyeRjoAu-101" value="2" style="ellipse;whiteSpace=wrap;html=1;aspect=fixed;rounded=0;sketch=0;strokeWidth=1;fillColor=#fff2cc;strokeColor=#d6b656;gradientColor=#ffd966;" vertex="1" parent="1">
          <mxGeometry x="828.75" y="170" width="25" height="25" as="geometry" />
        </mxCell>
        <mxCell id="htvxuuEL0ZNnEyeRjoAu-102" value="0" style="ellipse;whiteSpace=wrap;html=1;aspect=fixed;rounded=0;sketch=0;strokeWidth=1;fillColor=#dae8fc;strokeColor=#6c8ebf;gradientColor=#7ea6e0;" vertex="1" parent="1">
          <mxGeometry x="759.75" y="213" width="25" height="25" as="geometry" />
        </mxCell>
        <mxCell id="htvxuuEL0ZNnEyeRjoAu-103" value="1" style="ellipse;whiteSpace=wrap;html=1;aspect=fixed;rounded=0;sketch=0;strokeWidth=1;fillColor=#dae8fc;strokeColor=#6c8ebf;gradientColor=#7ea6e0;" vertex="1" parent="1">
          <mxGeometry x="759.75" y="259" width="25" height="25" as="geometry" />
        </mxCell>
        <mxCell id="htvxuuEL0ZNnEyeRjoAu-104" value="2" style="ellipse;whiteSpace=wrap;html=1;aspect=fixed;rounded=0;sketch=0;strokeWidth=1;fillColor=#fff2cc;strokeColor=#d6b656;gradientColor=#ffd966;" vertex="1" parent="1">
          <mxGeometry x="828.75" y="259" width="25" height="25" as="geometry" />
        </mxCell>
        <mxCell id="htvxuuEL0ZNnEyeRjoAu-105" value="1" style="ellipse;whiteSpace=wrap;html=1;aspect=fixed;rounded=0;sketch=0;strokeWidth=1;fillColor=#fff2cc;strokeColor=#d6b656;gradientColor=#ffd966;" vertex="1" parent="1">
          <mxGeometry x="828.75" y="213" width="25" height="25" as="geometry" />
        </mxCell>
        <mxCell id="htvxuuEL0ZNnEyeRjoAu-106" value="&lt;font color=&quot;#000000&quot;&gt;&lt;b&gt;u&lt;/b&gt;&lt;/font&gt;" style="text;html=1;align=center;verticalAlign=middle;resizable=0;points=[];autosize=1;strokeColor=none;fillColor=none;fontSize=12;fontColor=#FF0000;" vertex="1" parent="1">
          <mxGeometry x="737.25" y="216.5" width="17" height="18" as="geometry" />
        </mxCell>
        <mxCell id="htvxuuEL0ZNnEyeRjoAu-107" value="&lt;font color=&quot;#000000&quot;&gt;&lt;b&gt;v&lt;/b&gt;&lt;/font&gt;" style="text;html=1;align=center;verticalAlign=middle;resizable=0;points=[];autosize=1;strokeColor=none;fillColor=none;fontSize=12;fontColor=#FF0000;" vertex="1" parent="1">
          <mxGeometry x="859.75" y="216.5" width="16" height="18" as="geometry" />
        </mxCell>
        <mxCell id="htvxuuEL0ZNnEyeRjoAu-108" value="&lt;b&gt;&lt;font style=&quot;font-size: 14px&quot;&gt;Drugs&lt;/font&gt;&lt;/b&gt;" style="text;html=1;align=center;verticalAlign=middle;resizable=0;points=[];autosize=1;strokeColor=none;fillColor=none;fontSize=11;" vertex="1" parent="1">
          <mxGeometry x="748.25" y="139" width="50" height="17" as="geometry" />
        </mxCell>
        <mxCell id="htvxuuEL0ZNnEyeRjoAu-109" value="&lt;b&gt;&lt;font style=&quot;font-size: 14px&quot;&gt;Diseases&lt;/font&gt;&lt;/b&gt;" style="text;html=1;align=center;verticalAlign=middle;resizable=0;points=[];autosize=1;strokeColor=none;fillColor=none;fontSize=11;" vertex="1" parent="1">
          <mxGeometry x="811.75" y="139" width="71" height="17" as="geometry" />
        </mxCell>
        <mxCell id="htvxuuEL0ZNnEyeRjoAu-110" value="" style="endArrow=none;html=1;rounded=1;labelBackgroundColor=none;sketch=0;fontSize=12;fontColor=#000000;strokeColor=#000000;strokeWidth=1;curved=0;exitX=0;exitY=0.5;exitDx=0;exitDy=0;entryX=1;entryY=0.5;entryDx=0;entryDy=0;" edge="1" parent="1" source="htvxuuEL0ZNnEyeRjoAu-104" target="htvxuuEL0ZNnEyeRjoAu-103">
          <mxGeometry width="50" height="50" relative="1" as="geometry">
            <mxPoint x="858.25" y="235.5" as="sourcePoint" />
            <mxPoint x="804.75" y="235" as="targetPoint" />
          </mxGeometry>
        </mxCell>
        <mxCell id="htvxuuEL0ZNnEyeRjoAu-111" value="" style="endArrow=none;html=1;rounded=1;labelBackgroundColor=none;sketch=0;fontSize=12;fontColor=#000000;strokeColor=#000000;strokeWidth=1;curved=0;exitX=0;exitY=0.5;exitDx=0;exitDy=0;entryX=1;entryY=0.5;entryDx=0;entryDy=0;" edge="1" parent="1" source="htvxuuEL0ZNnEyeRjoAu-101" target="htvxuuEL0ZNnEyeRjoAu-102">
          <mxGeometry width="50" height="50" relative="1" as="geometry">
            <mxPoint x="838.7500000000084" y="281.5" as="sourcePoint" />
            <mxPoint x="794.7499999999916" y="281.5" as="targetPoint" />
          </mxGeometry>
        </mxCell>
        <mxCell id="htvxuuEL0ZNnEyeRjoAu-112" value="" style="endArrow=none;html=1;rounded=1;labelBackgroundColor=none;sketch=0;fontSize=12;fontColor=#000000;strokeColor=#000000;strokeWidth=1;curved=0;exitX=0;exitY=0.5;exitDx=0;exitDy=0;entryX=1;entryY=0.5;entryDx=0;entryDy=0;" edge="1" parent="1" source="htvxuuEL0ZNnEyeRjoAu-104" target="htvxuuEL0ZNnEyeRjoAu-102">
          <mxGeometry width="50" height="50" relative="1" as="geometry">
            <mxPoint x="838.75" y="192.5" as="sourcePoint" />
            <mxPoint x="794.75" y="235.5" as="targetPoint" />
          </mxGeometry>
        </mxCell>
        <mxCell id="htvxuuEL0ZNnEyeRjoAu-113" value="" style="endArrow=none;html=1;rounded=1;labelBackgroundColor=none;sketch=0;fontSize=12;fontColor=#000000;strokeColor=#000000;strokeWidth=1;curved=0;exitX=0;exitY=0.5;exitDx=0;exitDy=0;entryX=1;entryY=0.5;entryDx=0;entryDy=0;" edge="1" parent="1" source="htvxuuEL0ZNnEyeRjoAu-101" target="htvxuuEL0ZNnEyeRjoAu-100">
          <mxGeometry width="50" height="50" relative="1" as="geometry">
            <mxPoint x="838.7500000000027" y="192.5" as="sourcePoint" />
            <mxPoint x="794.7499999999973" y="235.5" as="targetPoint" />
          </mxGeometry>
        </mxCell>
        <mxCell id="htvxuuEL0ZNnEyeRjoAu-114" value="" style="endArrow=none;html=1;rounded=1;labelBackgroundColor=none;sketch=0;fontSize=12;fontColor=#000000;strokeColor=#000000;strokeWidth=1;curved=0;exitX=0;exitY=0.5;exitDx=0;exitDy=0;entryX=1;entryY=0.5;entryDx=0;entryDy=0;" edge="1" parent="1" source="htvxuuEL0ZNnEyeRjoAu-105" target="htvxuuEL0ZNnEyeRjoAu-100">
          <mxGeometry width="50" height="50" relative="1" as="geometry">
            <mxPoint x="838.7499999999832" y="192.5" as="sourcePoint" />
            <mxPoint x="794.7499999999975" y="192.5" as="targetPoint" />
          </mxGeometry>
        </mxCell>
        <mxCell id="htvxuuEL0ZNnEyeRjoAu-115" value="" style="endArrow=none;html=1;rounded=1;labelBackgroundColor=none;sketch=0;fontSize=12;fontColor=#000000;strokeColor=#000000;strokeWidth=1;curved=0;exitX=0;exitY=0.5;exitDx=0;exitDy=0;" edge="1" parent="1" source="htvxuuEL0ZNnEyeRjoAu-105">
          <mxGeometry width="50" height="50" relative="1" as="geometry">
            <mxPoint x="838.7499999999832" y="281.5" as="sourcePoint" />
            <mxPoint x="784.7500000000005" y="272" as="targetPoint" />
          </mxGeometry>
        </mxCell>
        <mxCell id="htvxuuEL0ZNnEyeRjoAu-116" value="&lt;font color=&quot;#000000&quot;&gt;&lt;b&gt;&lt;font style=&quot;font-size: 14px&quot;&gt;Positive Sample&lt;/font&gt;&lt;/b&gt;&lt;br&gt;&lt;/font&gt;" style="text;html=1;align=center;verticalAlign=middle;resizable=0;points=[];autosize=1;strokeColor=none;fillColor=none;fontSize=9;fontColor=#FF0000;" vertex="1" parent="1">
          <mxGeometry x="748.25" y="301" width="118" height="16" as="geometry" />
        </mxCell>
        <mxCell id="htvxuuEL0ZNnEyeRjoAu-117" value="" style="endArrow=none;html=1;rounded=0;exitX=1;exitY=0.5;exitDx=0;exitDy=0;entryX=0;entryY=0.5;entryDx=0;entryDy=0;strokeColor=#FF0000;" edge="1" parent="1" source="htvxuuEL0ZNnEyeRjoAu-102" target="htvxuuEL0ZNnEyeRjoAu-105">
          <mxGeometry width="50" height="50" relative="1" as="geometry">
            <mxPoint x="631.75" y="204" as="sourcePoint" />
            <mxPoint x="681.75" y="154" as="targetPoint" />
          </mxGeometry>
        </mxCell>
        <mxCell id="htvxuuEL0ZNnEyeRjoAu-118" value="2" style="ellipse;whiteSpace=wrap;html=1;aspect=fixed;rounded=0;sketch=0;strokeWidth=1;fillColor=#dae8fc;strokeColor=#6c8ebf;gradientColor=#7ea6e0;" vertex="1" parent="1">
          <mxGeometry x="923" y="234" width="25" height="25" as="geometry" />
        </mxCell>
        <mxCell id="htvxuuEL0ZNnEyeRjoAu-119" value="2" style="ellipse;whiteSpace=wrap;html=1;aspect=fixed;rounded=0;sketch=0;strokeWidth=1;fillColor=#fff2cc;strokeColor=#d6b656;gradientColor=#ffd966;" vertex="1" parent="1">
          <mxGeometry x="992" y="163" width="25" height="25" as="geometry" />
        </mxCell>
        <mxCell id="htvxuuEL0ZNnEyeRjoAu-120" value="0" style="ellipse;whiteSpace=wrap;html=1;aspect=fixed;rounded=0;sketch=0;strokeWidth=1;fillColor=#dae8fc;strokeColor=#6c8ebf;gradientColor=#7ea6e0;" vertex="1" parent="1">
          <mxGeometry x="923" y="198" width="25" height="25" as="geometry" />
        </mxCell>
        <mxCell id="htvxuuEL0ZNnEyeRjoAu-121" value="2" style="ellipse;whiteSpace=wrap;html=1;aspect=fixed;rounded=0;sketch=0;strokeWidth=1;fillColor=#fff2cc;strokeColor=#d6b656;gradientColor=#ffd966;" vertex="1" parent="1">
          <mxGeometry x="992" y="234" width="25" height="25" as="geometry" />
        </mxCell>
        <mxCell id="htvxuuEL0ZNnEyeRjoAu-122" value="1" style="ellipse;whiteSpace=wrap;html=1;aspect=fixed;rounded=0;sketch=0;strokeWidth=1;fillColor=#fff2cc;strokeColor=#d6b656;gradientColor=#ffd966;" vertex="1" parent="1">
          <mxGeometry x="992" y="198" width="25" height="25" as="geometry" />
        </mxCell>
        <mxCell id="htvxuuEL0ZNnEyeRjoAu-123" value="&lt;font color=&quot;#000000&quot;&gt;&lt;b&gt;u&lt;/b&gt;&lt;/font&gt;" style="text;html=1;align=center;verticalAlign=middle;resizable=0;points=[];autosize=1;strokeColor=none;fillColor=none;fontSize=12;fontColor=#FF0000;" vertex="1" parent="1">
          <mxGeometry x="900" y="201.5" width="17" height="18" as="geometry" />
        </mxCell>
        <mxCell id="htvxuuEL0ZNnEyeRjoAu-124" value="&lt;font color=&quot;#000000&quot;&gt;&lt;b&gt;v&lt;/b&gt;&lt;/font&gt;" style="text;html=1;align=center;verticalAlign=middle;resizable=0;points=[];autosize=1;strokeColor=none;fillColor=none;fontSize=12;fontColor=#FF0000;" vertex="1" parent="1">
          <mxGeometry x="1024" y="201.5" width="16" height="18" as="geometry" />
        </mxCell>
        <mxCell id="htvxuuEL0ZNnEyeRjoAu-125" value="&lt;b&gt;&lt;font style=&quot;font-size: 14px&quot;&gt;Drugs&lt;/font&gt;&lt;/b&gt;" style="text;html=1;align=center;verticalAlign=middle;resizable=0;points=[];autosize=1;strokeColor=none;fillColor=none;fontSize=11;" vertex="1" parent="1">
          <mxGeometry x="905.5" y="138" width="50" height="17" as="geometry" />
        </mxCell>
        <mxCell id="htvxuuEL0ZNnEyeRjoAu-126" value="&lt;b&gt;&lt;font style=&quot;font-size: 14px&quot;&gt;Diseases&lt;/font&gt;&lt;/b&gt;" style="text;html=1;align=center;verticalAlign=middle;resizable=0;points=[];autosize=1;strokeColor=none;fillColor=none;fontSize=11;" vertex="1" parent="1">
          <mxGeometry x="972.5" y="138" width="71" height="17" as="geometry" />
        </mxCell>
        <mxCell id="htvxuuEL0ZNnEyeRjoAu-127" value="2" style="ellipse;whiteSpace=wrap;html=1;aspect=fixed;rounded=0;sketch=0;strokeWidth=1;fillColor=#fff2cc;strokeColor=#d6b656;gradientColor=#ffd966;" vertex="1" parent="1">
          <mxGeometry x="992" y="270" width="25" height="25" as="geometry" />
        </mxCell>
        <mxCell id="htvxuuEL0ZNnEyeRjoAu-128" value="" style="endArrow=none;html=1;rounded=0;strokeColor=#000000;exitX=1;exitY=0.5;exitDx=0;exitDy=0;entryX=0;entryY=0.5;entryDx=0;entryDy=0;" edge="1" parent="1" source="htvxuuEL0ZNnEyeRjoAu-118" target="htvxuuEL0ZNnEyeRjoAu-121">
          <mxGeometry width="50" height="50" relative="1" as="geometry">
            <mxPoint x="950" y="250" as="sourcePoint" />
            <mxPoint x="1000" y="200" as="targetPoint" />
          </mxGeometry>
        </mxCell>
        <mxCell id="htvxuuEL0ZNnEyeRjoAu-129" value="" style="endArrow=none;html=1;rounded=0;strokeColor=#000000;exitX=1;exitY=0.5;exitDx=0;exitDy=0;entryX=0;entryY=0.5;entryDx=0;entryDy=0;" edge="1" parent="1" source="htvxuuEL0ZNnEyeRjoAu-120" target="htvxuuEL0ZNnEyeRjoAu-119">
          <mxGeometry width="50" height="50" relative="1" as="geometry">
            <mxPoint x="929" y="170" as="sourcePoint" />
            <mxPoint x="979" y="120" as="targetPoint" />
          </mxGeometry>
        </mxCell>
        <mxCell id="htvxuuEL0ZNnEyeRjoAu-130" value="" style="endArrow=none;html=1;rounded=0;strokeColor=#000000;exitX=1;exitY=0.5;exitDx=0;exitDy=0;entryX=0;entryY=0.5;entryDx=0;entryDy=0;" edge="1" parent="1" source="htvxuuEL0ZNnEyeRjoAu-120" target="htvxuuEL0ZNnEyeRjoAu-121">
          <mxGeometry width="50" height="50" relative="1" as="geometry">
            <mxPoint x="991" y="269" as="sourcePoint" />
            <mxPoint x="1041" y="219" as="targetPoint" />
          </mxGeometry>
        </mxCell>
        <mxCell id="htvxuuEL0ZNnEyeRjoAu-131" value="" style="endArrow=none;html=1;rounded=0;strokeColor=#000000;entryX=0;entryY=0.5;entryDx=0;entryDy=0;exitX=1;exitY=0.5;exitDx=0;exitDy=0;" edge="1" parent="1" source="htvxuuEL0ZNnEyeRjoAu-118" target="htvxuuEL0ZNnEyeRjoAu-127">
          <mxGeometry width="50" height="50" relative="1" as="geometry">
            <mxPoint x="1058" y="161" as="sourcePoint" />
            <mxPoint x="1108" y="111" as="targetPoint" />
          </mxGeometry>
        </mxCell>
        <mxCell id="htvxuuEL0ZNnEyeRjoAu-132" value="" style="endArrow=none;html=1;rounded=0;strokeColor=#000000;exitX=1;exitY=0.5;exitDx=0;exitDy=0;entryX=0;entryY=0.5;entryDx=0;entryDy=0;" edge="1" parent="1" source="htvxuuEL0ZNnEyeRjoAu-118" target="htvxuuEL0ZNnEyeRjoAu-122">
          <mxGeometry width="50" height="50" relative="1" as="geometry">
            <mxPoint x="948" y="247" as="sourcePoint" />
            <mxPoint x="1002" y="194" as="targetPoint" />
          </mxGeometry>
        </mxCell>
        <mxCell id="htvxuuEL0ZNnEyeRjoAu-133" value="&lt;font color=&quot;#000000&quot;&gt;&lt;b&gt;&lt;font style=&quot;font-size: 14px&quot;&gt;Negative Sample&lt;/font&gt;&lt;/b&gt;&lt;br&gt;&lt;/font&gt;" style="text;html=1;align=center;verticalAlign=middle;resizable=0;points=[];autosize=1;strokeColor=none;fillColor=none;fontSize=9;fontColor=#FF0000;" vertex="1" parent="1">
          <mxGeometry x="905.5" y="301" width="122" height="16" as="geometry" />
        </mxCell>
        <mxCell id="htvxuuEL0ZNnEyeRjoAu-134" value="&lt;span style=&quot;font-size: 16px;&quot;&gt;&lt;b&gt;Node Information Matrix of The Neighborhood Subgraph&lt;/b&gt;&lt;/span&gt;" style="rounded=0;whiteSpace=wrap;html=1;shadow=0;dashed=1;sketch=0;fontSize=9;strokeColor=none;strokeWidth=1;fillColor=#dae8fc;gradientColor=#7ea6e0;" vertex="1" parent="1">
          <mxGeometry x="777" y="58" width="235" height="51" as="geometry" />
        </mxCell>
        <mxCell id="htvxuuEL0ZNnEyeRjoAu-135" value="&lt;b style=&quot;color: rgb(255, 0, 0);&quot;&gt;&lt;font style=&quot;font-size: 16px;&quot;&gt;&lt;font color=&quot;#000000&quot;&gt;&amp;nbsp;&lt;/font&gt;&lt;span style=&quot;color: rgb(0, 0, 0);&quot;&gt;Neighborhood Subgraph of&lt;br&gt;Drug-Disease Pair&lt;/span&gt;&lt;/font&gt;&lt;/b&gt;" style="rounded=0;whiteSpace=wrap;html=1;shadow=0;dashed=1;sketch=0;fontSize=9;strokeColor=none;strokeWidth=1;fillColor=#dae8fc;gradientColor=#7ea6e0;" vertex="1" parent="1">
          <mxGeometry x="159.5" y="52" width="261" height="53" as="geometry" />
        </mxCell>
        <mxCell id="htvxuuEL0ZNnEyeRjoAu-136" value="" style="shape=flexArrow;endArrow=classic;html=1;rounded=1;labelBackgroundColor=none;sketch=0;fontSize=9;fontColor=#FF0000;strokeColor=none;strokeWidth=1;curved=0;fillColor=#858585;gradientColor=#ffffff;endWidth=10.011890606420927;endSize=3.652873563218391;width=3.4482758620689657;gradientDirection=north;" edge="1" parent="1">
          <mxGeometry width="50" height="50" relative="1" as="geometry">
            <mxPoint x="822" y="473" as="sourcePoint" />
            <mxPoint x="727.5000000000005" y="498" as="targetPoint" />
          </mxGeometry>
        </mxCell>
        <mxCell id="htvxuuEL0ZNnEyeRjoAu-138" value="&lt;b&gt;&lt;font style=&quot;font-size: 16px&quot;&gt;Graph Conv&lt;/font&gt;&lt;/b&gt;" style="rounded=1;whiteSpace=wrap;html=1;shadow=0;sketch=0;fontSize=9;strokeColor=#b85450;strokeWidth=1;fillColor=#f8cecc;gradientColor=#ea6b66;" vertex="1" parent="1">
          <mxGeometry x="547" y="538.5" width="111" height="50" as="geometry" />
        </mxCell>
        <mxCell id="htvxuuEL0ZNnEyeRjoAu-139" value="&lt;font style=&quot;font-size: 14px&quot;&gt;&lt;b&gt;Traing Loss:&amp;nbsp;&lt;/b&gt;&lt;br&gt;&lt;b&gt;BCEloss Function&lt;/b&gt;&lt;/font&gt;" style="rounded=0;whiteSpace=wrap;html=1;shadow=0;dashed=1;sketch=0;fontSize=9;strokeColor=none;strokeWidth=1;fillColor=#cdeb8b;" vertex="1" parent="1">
          <mxGeometry x="172" y="660" width="137" height="63" as="geometry" />
        </mxCell>
        <mxCell id="htvxuuEL0ZNnEyeRjoAu-140" value="&lt;b style=&quot;color: rgb(255 , 0 , 0)&quot;&gt;&lt;span style=&quot;color: rgb(0 , 0 , 0)&quot;&gt;&lt;font style=&quot;font-size: 16px&quot;&gt;Neighborhood Subgraph&lt;/font&gt;&lt;/span&gt;&lt;/b&gt;" style="rounded=1;whiteSpace=wrap;html=1;shadow=0;sketch=0;fontSize=9;strokeColor=#82b366;strokeWidth=1;fillColor=#d5e8d4;gradientColor=#97d077;" vertex="1" parent="1">
          <mxGeometry x="367.5" y="535.5" width="121" height="53" as="geometry" />
        </mxCell>
        <mxCell id="htvxuuEL0ZNnEyeRjoAu-141" value="" style="shape=flexArrow;endArrow=classic;html=1;rounded=1;labelBackgroundColor=none;sketch=0;fontSize=9;fontColor=#000000;strokeColor=#FFFFFF;strokeWidth=1;fillColor=#858585;gradientColor=#ffffff;gradientDirection=north;curved=0;width=4.166666666666667;endSize=6.633333333333334;endWidth=4.861111111111111;" edge="1" parent="1">
          <mxGeometry width="50" height="50" relative="1" as="geometry">
            <mxPoint x="492" y="563.3000000000002" as="sourcePoint" />
            <mxPoint x="539" y="563.3000000000002" as="targetPoint" />
          </mxGeometry>
        </mxCell>
        <mxCell id="htvxuuEL0ZNnEyeRjoAu-142" value="" style="shape=flexArrow;endArrow=classic;html=1;rounded=1;labelBackgroundColor=none;sketch=0;fontSize=9;fontColor=#000000;strokeColor=#FFFFFF;strokeWidth=1;fillColor=#858585;gradientColor=#ffffff;gradientDirection=north;curved=0;width=4.166666666666667;endSize=6.633333333333334;endWidth=4.861111111111111;" edge="1" parent="1">
          <mxGeometry width="50" height="50" relative="1" as="geometry">
            <mxPoint x="677" y="564.6599999999999" as="sourcePoint" />
            <mxPoint x="724" y="564.6599999999999" as="targetPoint" />
          </mxGeometry>
        </mxCell>
        <mxCell id="htvxuuEL0ZNnEyeRjoAu-143" value="" style="shape=flexArrow;endArrow=classic;html=1;rounded=1;labelBackgroundColor=none;sketch=0;fontSize=9;fontColor=#000000;strokeColor=#FFFFFF;strokeWidth=1;fillColor=#858585;gradientColor=#ffffff;gradientDirection=north;curved=0;width=4.166666666666667;endSize=6.633333333333334;endWidth=4.861111111111111;" edge="1" parent="1">
          <mxGeometry width="50" height="50" relative="1" as="geometry">
            <mxPoint x="859" y="564.6599999999999" as="sourcePoint" />
            <mxPoint x="905.9999999999995" y="564.6599999999999" as="targetPoint" />
          </mxGeometry>
        </mxCell>
        <mxCell id="htvxuuEL0ZNnEyeRjoAu-144" value="" style="endArrow=classic;html=1;rounded=1;labelBackgroundColor=none;sketch=0;fontSize=9;fontColor=#000000;strokeColor=#FFFFFF;strokeWidth=1;fillColor=#858585;gradientColor=#ffffff;gradientDirection=north;curved=0;startArrow=none;" edge="1" parent="1" source="htvxuuEL0ZNnEyeRjoAu-145">
          <mxGeometry width="50" height="50" relative="1" as="geometry">
            <mxPoint x="764" y="680.5" as="sourcePoint" />
            <mxPoint x="814" y="630.5" as="targetPoint" />
          </mxGeometry>
        </mxCell>
        <mxCell id="htvxuuEL0ZNnEyeRjoAu-145" value="&lt;b&gt;&lt;font&gt;&lt;span style=&quot;font-size: 16px&quot;&gt;Layer aggregation:&lt;br&gt;&lt;/span&gt;&lt;/font&gt;&lt;/b&gt;&lt;span style=&quot;color: rgb(18 , 18 , 18) ; font-family: , &amp;#34;blinkmacsystemfont&amp;#34; , &amp;#34;helvetica neue&amp;#34; , &amp;#34;pingfang sc&amp;#34; , &amp;#34;microsoft yahei&amp;#34; , &amp;#34;source han sans sc&amp;#34; , &amp;#34;noto sans cjk sc&amp;#34; , &amp;#34;wenquanyi micro hei&amp;#34; , sans-serif&quot;&gt;&lt;font size=&quot;3&quot;&gt;&lt;b&gt;Concat+Sum&lt;/b&gt;&lt;/font&gt;&lt;/span&gt;" style="rounded=1;whiteSpace=wrap;html=1;shadow=0;sketch=0;fontSize=9;strokeColor=#d6b656;strokeWidth=1;fillColor=#fff2cc;" vertex="1" parent="1">
          <mxGeometry x="713.5" y="620" width="155.5" height="48" as="geometry" />
        </mxCell>
        <mxCell id="htvxuuEL0ZNnEyeRjoAu-146" value="&lt;b&gt;&lt;font style=&quot;font-size: 16px&quot;&gt;MLP&lt;/font&gt;&lt;/b&gt;" style="rounded=1;whiteSpace=wrap;html=1;shadow=0;sketch=0;fontSize=9;strokeColor=#d79b00;strokeWidth=1;fillColor=#ffcd28;gradientColor=#ffa500;" vertex="1" parent="1">
          <mxGeometry x="746" y="687" width="87" height="36" as="geometry" />
        </mxCell>
        <mxCell id="htvxuuEL0ZNnEyeRjoAu-147" value="" style="shape=flexArrow;endArrow=classic;html=1;rounded=1;labelBackgroundColor=none;sketch=0;fontSize=9;fontColor=#000000;strokeColor=#FFFFFF;strokeWidth=1;fillColor=#858585;gradientColor=#ffffff;gradientDirection=north;curved=0;width=2.380952380952381;endSize=1.3792307692307693;endWidth=3.2014652014652016;" edge="1" parent="1">
          <mxGeometry width="50" height="50" relative="1" as="geometry">
            <mxPoint x="611.5" y="593" as="sourcePoint" />
            <mxPoint x="787" y="613.5" as="targetPoint" />
          </mxGeometry>
        </mxCell>
        <mxCell id="htvxuuEL0ZNnEyeRjoAu-148" value="" style="shape=flexArrow;endArrow=classic;html=1;rounded=1;labelBackgroundColor=none;sketch=0;fontSize=9;fontColor=#000000;strokeColor=#FFFFFF;strokeWidth=1;fillColor=#858585;gradientColor=#ffffff;gradientDirection=north;curved=0;width=2.558139534883721;endSize=1.352325581395349;endWidth=4.860670194003528;" edge="1" parent="1">
          <mxGeometry width="50" height="50" relative="1" as="geometry">
            <mxPoint x="792" y="590.5" as="sourcePoint" />
            <mxPoint x="792" y="615.5" as="targetPoint" />
            <Array as="points">
              <mxPoint x="792" y="608.5" />
            </Array>
          </mxGeometry>
        </mxCell>
        <mxCell id="htvxuuEL0ZNnEyeRjoAu-149" value="" style="shape=flexArrow;endArrow=classic;html=1;rounded=1;labelBackgroundColor=none;sketch=0;fontSize=9;fontColor=#000000;strokeColor=#FFFFFF;strokeWidth=1;fillColor=#858585;gradientColor=#ffffff;gradientDirection=north;curved=0;width=2.380952380952381;endSize=1.3792307692307693;endWidth=3.2014652014652016;" edge="1" parent="1">
          <mxGeometry width="50" height="50" relative="1" as="geometry">
            <mxPoint x="972" y="591.5" as="sourcePoint" />
            <mxPoint x="797" y="613.5" as="targetPoint" />
          </mxGeometry>
        </mxCell>
        <mxCell id="htvxuuEL0ZNnEyeRjoAu-150" value="" style="shape=flexArrow;endArrow=classic;html=1;rounded=1;labelBackgroundColor=none;sketch=0;fontSize=9;fontColor=#000000;strokeColor=#FFFFFF;strokeWidth=1;fillColor=#858585;gradientColor=#ffffff;gradientDirection=north;curved=0;width=2.558139534883721;endSize=1.352325581395349;endWidth=4.860670194003528;" edge="1" parent="1">
          <mxGeometry width="50" height="50" relative="1" as="geometry">
            <mxPoint x="788.4999999999995" y="670.0000000000002" as="sourcePoint" />
            <mxPoint x="788.4300000000003" y="686.5" as="targetPoint" />
            <Array as="points">
              <mxPoint x="788.4300000000001" y="679.5" />
            </Array>
          </mxGeometry>
        </mxCell>
        <mxCell id="htvxuuEL0ZNnEyeRjoAu-151" value="&lt;b&gt;&lt;font style=&quot;font-size: 16px&quot;&gt;Aggregate drug and &lt;br&gt;disease outputs from each &lt;br&gt;message-passing layer&lt;/font&gt;&lt;/b&gt;" style="text;html=1;align=center;verticalAlign=middle;resizable=0;points=[];autosize=1;strokeColor=none;fillColor=none;fontSize=9;fontColor=#000000;" vertex="1" parent="1">
          <mxGeometry x="357" y="671" width="213" height="41" as="geometry" />
        </mxCell>
        <mxCell id="htvxuuEL0ZNnEyeRjoAu-152" value="&lt;font color=&quot;#000000&quot; style=&quot;font-size: 16px&quot;&gt;&lt;b&gt;Prediction&lt;/b&gt;&lt;/font&gt;" style="rounded=1;whiteSpace=wrap;html=1;shadow=0;sketch=0;fontSize=9;strokeColor=#655F94;strokeWidth=1;fillColor=#9292F5;" vertex="1" parent="1">
          <mxGeometry x="737.25" y="743" width="104.5" height="40" as="geometry" />
        </mxCell>
        <mxCell id="htvxuuEL0ZNnEyeRjoAu-153" value="&lt;b&gt;&lt;font style=&quot;font-size: 16px&quot;&gt;Graph Conv&lt;/font&gt;&lt;/b&gt;" style="rounded=1;whiteSpace=wrap;html=1;shadow=0;sketch=0;fontSize=9;strokeColor=#b85450;strokeWidth=1;fillColor=#f8cecc;gradientColor=#ea6b66;" vertex="1" parent="1">
          <mxGeometry x="729" y="538.5" width="111" height="50" as="geometry" />
        </mxCell>
        <mxCell id="htvxuuEL0ZNnEyeRjoAu-154" value="&lt;b&gt;&lt;font style=&quot;font-size: 16px&quot;&gt;Graph Conv&lt;/font&gt;&lt;/b&gt;" style="rounded=1;whiteSpace=wrap;html=1;shadow=0;sketch=0;fontSize=9;strokeColor=#b85450;strokeWidth=1;fillColor=#f8cecc;gradientColor=#ea6b66;" vertex="1" parent="1">
          <mxGeometry x="911" y="538.5" width="111" height="50" as="geometry" />
        </mxCell>
        <mxCell id="htvxuuEL0ZNnEyeRjoAu-155" value="&lt;b style=&quot;font-size: 14px&quot;&gt;&lt;font style=&quot;font-size: 16px&quot;&gt;Neighborhood Subgraph Encoder And Predictor&lt;/font&gt;&lt;/b&gt;" style="rounded=0;whiteSpace=wrap;html=1;shadow=0;dashed=1;sketch=0;fontSize=9;strokeColor=none;strokeWidth=1;fillColor=#dae8fc;gradientColor=#7ea6e0;" vertex="1" parent="1">
          <mxGeometry x="92" y="530.5" width="221" height="63" as="geometry" />
        </mxCell>
        <mxCell id="htvxuuEL0ZNnEyeRjoAu-156" value="" style="shape=flexArrow;endArrow=classic;html=1;rounded=1;labelBackgroundColor=none;sketch=0;fontSize=9;fontColor=#000000;strokeColor=#FFFFFF;strokeWidth=1;fillColor=#858585;gradientColor=#ffffff;gradientDirection=north;curved=0;width=2.558139534883721;endSize=1.352325581395349;endWidth=4.860670194003528;" edge="1" parent="1">
          <mxGeometry width="50" height="50" relative="1" as="geometry">
            <mxPoint x="789.3700000000003" y="726" as="sourcePoint" />
            <mxPoint x="789.3000000000006" y="742.5000000000002" as="targetPoint" />
            <Array as="points">
              <mxPoint x="789.3000000000002" y="735.5" />
            </Array>
          </mxGeometry>
        </mxCell>
        <mxCell id="htvxuuEL0ZNnEyeRjoAu-157" value="&lt;span lang=&quot;EN-US&quot;&gt;&lt;font style=&quot;font-size: 16px;&quot;&gt;&lt;b&gt;Drug-Drug Similarity&lt;/b&gt;&lt;/font&gt;&lt;/span&gt;" style="rounded=1;whiteSpace=wrap;html=1;gradientDirection=south;fillColor=#f8cecc;strokeColor=#b85450;gradientColor=#ea6b66;" vertex="1" parent="1">
          <mxGeometry x="772" y="336.5" width="238" height="39.5" as="geometry" />
        </mxCell>
        <mxCell id="htvxuuEL0ZNnEyeRjoAu-158" value="&lt;span style=&quot;&quot; lang=&quot;EN-US&quot;&gt;&lt;font style=&quot;font-size: 16px;&quot;&gt;&lt;b style=&quot;&quot;&gt;Disease-Disease Similarity&lt;/b&gt;&lt;/font&gt;&lt;/span&gt;" style="rounded=1;whiteSpace=wrap;html=1;gradientDirection=south;fillColor=#d5e8d4;strokeColor=#82b366;gradientColor=#97d077;" vertex="1" parent="1">
          <mxGeometry x="772.6300000000001" y="399.25" width="237.37" height="36.75" as="geometry" />
        </mxCell>
        <mxCell id="l4e9cBtYLSCU2swTZ3-t-1" value="" style="rounded=1;whiteSpace=wrap;html=1;fontSize=14;fillColor=none;dashed=1;arcSize=9;" vertex="1" parent="1">
          <mxGeometry x="71" y="514" width="999" height="286" as="geometry" />
        </mxCell>
      </root>
    </mxGraphModel>
  </diagram>
  <diagram id="BDHZHP86FE1r8b7_OU8t" name="第 3 页">
    <mxGraphModel dx="335" dy="1471" grid="1" gridSize="10" guides="1" tooltips="1" connect="1" arrows="1" fold="1" page="1" pageScale="1" pageWidth="1169" pageHeight="827" math="0" shadow="0">
      <root>
        <mxCell id="0" />
        <mxCell id="1" parent="0" />
        <mxCell id="LcC4YO1sCL_EDdfkjaUg-1" value="" style="ellipse;whiteSpace=wrap;html=1;aspect=fixed;rounded=0;sketch=0;strokeWidth=1;fillColor=#dae8fc;strokeColor=#6c8ebf;gradientColor=#7ea6e0;" vertex="1" parent="1">
          <mxGeometry x="1580.5" y="-475" width="25" height="25" as="geometry" />
        </mxCell>
        <mxCell id="LcC4YO1sCL_EDdfkjaUg-2" value="" style="ellipse;whiteSpace=wrap;html=1;aspect=fixed;rounded=0;sketch=0;strokeWidth=1;fillColor=#fff2cc;strokeColor=#d6b656;gradientColor=#ffd966;" vertex="1" parent="1">
          <mxGeometry x="1649.5" y="-475" width="25" height="25" as="geometry" />
        </mxCell>
        <mxCell id="LcC4YO1sCL_EDdfkjaUg-3" value="" style="ellipse;whiteSpace=wrap;html=1;aspect=fixed;rounded=0;sketch=0;strokeWidth=1;fillColor=#dae8fc;strokeColor=#6c8ebf;gradientColor=#7ea6e0;" vertex="1" parent="1">
          <mxGeometry x="1580.5" y="-432" width="25" height="25" as="geometry" />
        </mxCell>
        <mxCell id="LcC4YO1sCL_EDdfkjaUg-4" value="" style="ellipse;whiteSpace=wrap;html=1;aspect=fixed;rounded=0;sketch=0;strokeWidth=1;fillColor=#dae8fc;strokeColor=#6c8ebf;gradientColor=#7ea6e0;" vertex="1" parent="1">
          <mxGeometry x="1580.5" y="-386" width="25" height="25" as="geometry" />
        </mxCell>
        <mxCell id="LcC4YO1sCL_EDdfkjaUg-5" value="" style="ellipse;whiteSpace=wrap;html=1;aspect=fixed;rounded=0;sketch=0;strokeWidth=1;fillColor=#fff2cc;strokeColor=#d6b656;gradientColor=#ffd966;" vertex="1" parent="1">
          <mxGeometry x="1649.5" y="-386" width="25" height="25" as="geometry" />
        </mxCell>
        <mxCell id="LcC4YO1sCL_EDdfkjaUg-6" value="" style="ellipse;whiteSpace=wrap;html=1;aspect=fixed;rounded=0;sketch=0;strokeWidth=1;fillColor=#fff2cc;strokeColor=#d6b656;gradientColor=#ffd966;" vertex="1" parent="1">
          <mxGeometry x="1649.5" y="-432" width="25" height="25" as="geometry" />
        </mxCell>
        <mxCell id="LcC4YO1sCL_EDdfkjaUg-7" value="&lt;font color=&quot;#000000&quot;&gt;&lt;b&gt;u&lt;/b&gt;&lt;/font&gt;" style="text;html=1;align=center;verticalAlign=middle;resizable=0;points=[];autosize=1;strokeColor=none;fillColor=none;fontSize=12;fontColor=#FF0000;" vertex="1" parent="1">
          <mxGeometry x="1557.5" y="-428.5" width="17" height="18" as="geometry" />
        </mxCell>
        <mxCell id="LcC4YO1sCL_EDdfkjaUg-8" value="&lt;font color=&quot;#000000&quot;&gt;&lt;b&gt;v&lt;/b&gt;&lt;/font&gt;" style="text;html=1;align=center;verticalAlign=middle;resizable=0;points=[];autosize=1;strokeColor=none;fillColor=none;fontSize=12;fontColor=#FF0000;" vertex="1" parent="1">
          <mxGeometry x="1682.5" y="-428.5" width="16" height="18" as="geometry" />
        </mxCell>
        <mxCell id="LcC4YO1sCL_EDdfkjaUg-9" value="&lt;b&gt;&lt;font style=&quot;font-size: 14px&quot;&gt;Drugs&lt;/font&gt;&lt;/b&gt;" style="text;html=1;align=center;verticalAlign=middle;resizable=0;points=[];autosize=1;strokeColor=none;fillColor=none;fontSize=11;" vertex="1" parent="1">
          <mxGeometry x="1569" y="-506" width="50" height="17" as="geometry" />
        </mxCell>
        <mxCell id="LcC4YO1sCL_EDdfkjaUg-10" value="&lt;b&gt;&lt;font style=&quot;font-size: 14px&quot;&gt;Diseases&lt;/font&gt;&lt;/b&gt;" style="text;html=1;align=center;verticalAlign=middle;resizable=0;points=[];autosize=1;strokeColor=none;fillColor=none;fontSize=11;" vertex="1" parent="1">
          <mxGeometry x="1632.5" y="-506" width="71" height="17" as="geometry" />
        </mxCell>
        <mxCell id="LcC4YO1sCL_EDdfkjaUg-11" value="" style="endArrow=none;html=1;rounded=1;labelBackgroundColor=none;sketch=0;fontSize=12;fontColor=#000000;strokeColor=#000000;strokeWidth=1;curved=0;exitX=0;exitY=0.5;exitDx=0;exitDy=0;entryX=1;entryY=0.5;entryDx=0;entryDy=0;" edge="1" parent="1" source="LcC4YO1sCL_EDdfkjaUg-5" target="LcC4YO1sCL_EDdfkjaUg-4">
          <mxGeometry width="50" height="50" relative="1" as="geometry">
            <mxPoint x="1679" y="-409.5" as="sourcePoint" />
            <mxPoint x="1625.5" y="-410" as="targetPoint" />
          </mxGeometry>
        </mxCell>
        <mxCell id="LcC4YO1sCL_EDdfkjaUg-12" value="" style="endArrow=none;html=1;rounded=1;labelBackgroundColor=none;sketch=0;fontSize=12;fontColor=#000000;strokeColor=#000000;strokeWidth=1;curved=0;exitX=0;exitY=0.5;exitDx=0;exitDy=0;entryX=1;entryY=0.5;entryDx=0;entryDy=0;" edge="1" parent="1" source="LcC4YO1sCL_EDdfkjaUg-2" target="LcC4YO1sCL_EDdfkjaUg-3">
          <mxGeometry width="50" height="50" relative="1" as="geometry">
            <mxPoint x="1659.5000000000084" y="-363.5" as="sourcePoint" />
            <mxPoint x="1615.4999999999916" y="-363.5" as="targetPoint" />
          </mxGeometry>
        </mxCell>
        <mxCell id="LcC4YO1sCL_EDdfkjaUg-13" value="" style="endArrow=none;html=1;rounded=1;labelBackgroundColor=none;sketch=0;fontSize=12;fontColor=#000000;strokeColor=#000000;strokeWidth=1;curved=0;exitX=0;exitY=0.5;exitDx=0;exitDy=0;entryX=1;entryY=0.5;entryDx=0;entryDy=0;" edge="1" parent="1" source="LcC4YO1sCL_EDdfkjaUg-5" target="LcC4YO1sCL_EDdfkjaUg-3">
          <mxGeometry width="50" height="50" relative="1" as="geometry">
            <mxPoint x="1659.5" y="-452.5" as="sourcePoint" />
            <mxPoint x="1615.5" y="-409.5" as="targetPoint" />
          </mxGeometry>
        </mxCell>
        <mxCell id="LcC4YO1sCL_EDdfkjaUg-14" value="" style="endArrow=none;html=1;rounded=1;labelBackgroundColor=none;sketch=0;fontSize=12;fontColor=#000000;strokeColor=#000000;strokeWidth=1;curved=0;exitX=0;exitY=0.5;exitDx=0;exitDy=0;entryX=1;entryY=0.5;entryDx=0;entryDy=0;" edge="1" parent="1" source="LcC4YO1sCL_EDdfkjaUg-2" target="LcC4YO1sCL_EDdfkjaUg-1">
          <mxGeometry width="50" height="50" relative="1" as="geometry">
            <mxPoint x="1659.5000000000027" y="-452.5" as="sourcePoint" />
            <mxPoint x="1615.4999999999973" y="-409.5" as="targetPoint" />
          </mxGeometry>
        </mxCell>
        <mxCell id="LcC4YO1sCL_EDdfkjaUg-15" value="" style="endArrow=none;html=1;rounded=1;labelBackgroundColor=none;sketch=0;fontSize=12;fontColor=#000000;strokeColor=#000000;strokeWidth=1;curved=0;exitX=0;exitY=0.5;exitDx=0;exitDy=0;entryX=1;entryY=0.5;entryDx=0;entryDy=0;" edge="1" parent="1" source="LcC4YO1sCL_EDdfkjaUg-6" target="LcC4YO1sCL_EDdfkjaUg-1">
          <mxGeometry width="50" height="50" relative="1" as="geometry">
            <mxPoint x="1659.4999999999832" y="-452.5" as="sourcePoint" />
            <mxPoint x="1615.4999999999975" y="-452.5" as="targetPoint" />
          </mxGeometry>
        </mxCell>
        <mxCell id="LcC4YO1sCL_EDdfkjaUg-16" value="" style="endArrow=none;html=1;rounded=1;labelBackgroundColor=none;sketch=0;fontSize=12;fontColor=#000000;strokeColor=#000000;strokeWidth=1;curved=0;exitX=0;exitY=0.5;exitDx=0;exitDy=0;" edge="1" parent="1" source="LcC4YO1sCL_EDdfkjaUg-6">
          <mxGeometry width="50" height="50" relative="1" as="geometry">
            <mxPoint x="1659.4999999999832" y="-363.5" as="sourcePoint" />
            <mxPoint x="1605.5" y="-373" as="targetPoint" />
          </mxGeometry>
        </mxCell>
        <mxCell id="LcC4YO1sCL_EDdfkjaUg-17" value="&lt;b&gt;&lt;font style=&quot;font-size: 16px&quot;&gt;&lt;span style=&quot;color: rgb(0 , 0 , 0)&quot;&gt;Subgraph emdedding&lt;/span&gt;&lt;/font&gt;&lt;/b&gt;&lt;font color=&quot;#000000&quot;&gt;&lt;br&gt;&lt;/font&gt;" style="text;html=1;align=center;verticalAlign=middle;resizable=0;points=[];autosize=1;strokeColor=none;fillColor=none;fontSize=9;fontColor=#FF0000;" vertex="1" parent="1">
          <mxGeometry x="1545" y="-341" width="174" height="16" as="geometry" />
        </mxCell>
        <mxCell id="LcC4YO1sCL_EDdfkjaUg-18" value="(a)" style="text;html=1;align=center;verticalAlign=middle;resizable=0;points=[];autosize=1;strokeColor=none;fillColor=none;fontSize=16;fontColor=#000000;" vertex="1" parent="1">
          <mxGeometry x="1619.5" y="-312" width="30" height="23" as="geometry" />
        </mxCell>
        <mxCell id="LcC4YO1sCL_EDdfkjaUg-19" value="" style="ellipse;whiteSpace=wrap;html=1;aspect=fixed;rounded=0;sketch=0;strokeWidth=1;fillColor=#dae8fc;strokeColor=#6c8ebf;gradientColor=#7ea6e0;" vertex="1" parent="1">
          <mxGeometry x="1947.5" y="-475" width="25" height="25" as="geometry" />
        </mxCell>
        <mxCell id="LcC4YO1sCL_EDdfkjaUg-20" value="" style="ellipse;whiteSpace=wrap;html=1;aspect=fixed;rounded=0;sketch=0;strokeWidth=1;fillColor=#fff2cc;strokeColor=#d6b656;gradientColor=#ffd966;" vertex="1" parent="1">
          <mxGeometry x="2016.5" y="-475" width="25" height="25" as="geometry" />
        </mxCell>
        <mxCell id="LcC4YO1sCL_EDdfkjaUg-21" value="" style="ellipse;whiteSpace=wrap;html=1;aspect=fixed;rounded=0;sketch=0;strokeWidth=1;fillColor=#dae8fc;strokeColor=#6c8ebf;gradientColor=#7ea6e0;" vertex="1" parent="1">
          <mxGeometry x="1947.5" y="-432" width="25" height="25" as="geometry" />
        </mxCell>
        <mxCell id="LcC4YO1sCL_EDdfkjaUg-22" value="" style="ellipse;whiteSpace=wrap;html=1;aspect=fixed;rounded=0;sketch=0;strokeWidth=1;fillColor=#dae8fc;strokeColor=#6c8ebf;gradientColor=#7ea6e0;" vertex="1" parent="1">
          <mxGeometry x="1947.5" y="-386" width="25" height="25" as="geometry" />
        </mxCell>
        <mxCell id="LcC4YO1sCL_EDdfkjaUg-23" value="" style="ellipse;whiteSpace=wrap;html=1;aspect=fixed;rounded=0;sketch=0;strokeWidth=1;fillColor=#fff2cc;strokeColor=#d6b656;gradientColor=#ffd966;" vertex="1" parent="1">
          <mxGeometry x="2016.5" y="-386" width="25" height="25" as="geometry" />
        </mxCell>
        <mxCell id="LcC4YO1sCL_EDdfkjaUg-24" value="&lt;font color=&quot;#000000&quot;&gt;&lt;b&gt;u&lt;/b&gt;&lt;/font&gt;" style="text;html=1;align=center;verticalAlign=middle;resizable=0;points=[];autosize=1;strokeColor=none;fillColor=none;fontSize=12;fontColor=#FF0000;" vertex="1" parent="1">
          <mxGeometry x="1924.5" y="-428.5" width="17" height="18" as="geometry" />
        </mxCell>
        <mxCell id="LcC4YO1sCL_EDdfkjaUg-25" value="&lt;b&gt;&lt;font style=&quot;font-size: 14px&quot;&gt;Drugs&lt;/font&gt;&lt;/b&gt;" style="text;html=1;align=center;verticalAlign=middle;resizable=0;points=[];autosize=1;strokeColor=none;fillColor=none;fontSize=11;" vertex="1" parent="1">
          <mxGeometry x="1936" y="-506" width="50" height="17" as="geometry" />
        </mxCell>
        <mxCell id="LcC4YO1sCL_EDdfkjaUg-26" value="&lt;b&gt;&lt;font style=&quot;font-size: 14px&quot;&gt;Diseases&lt;/font&gt;&lt;/b&gt;" style="text;html=1;align=center;verticalAlign=middle;resizable=0;points=[];autosize=1;strokeColor=none;fillColor=none;fontSize=11;" vertex="1" parent="1">
          <mxGeometry x="1999.5" y="-506" width="71" height="17" as="geometry" />
        </mxCell>
        <mxCell id="LcC4YO1sCL_EDdfkjaUg-27" value="" style="endArrow=none;html=1;rounded=1;labelBackgroundColor=none;sketch=0;fontSize=12;fontColor=#000000;strokeColor=#000000;strokeWidth=1;curved=0;exitX=0;exitY=0.5;exitDx=0;exitDy=0;entryX=1;entryY=0.5;entryDx=0;entryDy=0;" edge="1" parent="1" source="LcC4YO1sCL_EDdfkjaUg-23" target="LcC4YO1sCL_EDdfkjaUg-22">
          <mxGeometry width="50" height="50" relative="1" as="geometry">
            <mxPoint x="2046" y="-409.5" as="sourcePoint" />
            <mxPoint x="1992.5" y="-410" as="targetPoint" />
          </mxGeometry>
        </mxCell>
        <mxCell id="LcC4YO1sCL_EDdfkjaUg-28" value="" style="endArrow=none;html=1;rounded=1;labelBackgroundColor=none;sketch=0;fontSize=12;fontColor=#000000;strokeColor=#000000;strokeWidth=1;curved=0;exitX=0;exitY=0.5;exitDx=0;exitDy=0;entryX=1;entryY=0.5;entryDx=0;entryDy=0;" edge="1" parent="1" source="LcC4YO1sCL_EDdfkjaUg-20" target="LcC4YO1sCL_EDdfkjaUg-21">
          <mxGeometry width="50" height="50" relative="1" as="geometry">
            <mxPoint x="2026.5000000000084" y="-363.5" as="sourcePoint" />
            <mxPoint x="1982.4999999999916" y="-363.5" as="targetPoint" />
          </mxGeometry>
        </mxCell>
        <mxCell id="LcC4YO1sCL_EDdfkjaUg-29" value="" style="endArrow=none;html=1;rounded=1;labelBackgroundColor=none;sketch=0;fontSize=12;fontColor=#000000;strokeColor=#000000;strokeWidth=1;curved=0;exitX=0;exitY=0.5;exitDx=0;exitDy=0;entryX=1;entryY=0.5;entryDx=0;entryDy=0;" edge="1" parent="1" source="LcC4YO1sCL_EDdfkjaUg-23" target="LcC4YO1sCL_EDdfkjaUg-21">
          <mxGeometry width="50" height="50" relative="1" as="geometry">
            <mxPoint x="2026.5" y="-452.5" as="sourcePoint" />
            <mxPoint x="1982.5" y="-409.5" as="targetPoint" />
          </mxGeometry>
        </mxCell>
        <mxCell id="LcC4YO1sCL_EDdfkjaUg-30" value="" style="endArrow=none;html=1;rounded=1;labelBackgroundColor=none;sketch=0;fontSize=12;fontColor=#000000;strokeColor=#000000;strokeWidth=1;curved=0;exitX=0;exitY=0.5;exitDx=0;exitDy=0;entryX=1;entryY=0.5;entryDx=0;entryDy=0;" edge="1" parent="1" source="LcC4YO1sCL_EDdfkjaUg-20" target="LcC4YO1sCL_EDdfkjaUg-19">
          <mxGeometry width="50" height="50" relative="1" as="geometry">
            <mxPoint x="2026.5000000000027" y="-452.5" as="sourcePoint" />
            <mxPoint x="1982.4999999999973" y="-409.5" as="targetPoint" />
          </mxGeometry>
        </mxCell>
        <mxCell id="LcC4YO1sCL_EDdfkjaUg-31" value="&lt;b&gt;&lt;font style=&quot;font-size: 16px&quot;&gt;&lt;span style=&quot;color: rgb(0 , 0 , 0)&quot;&gt;Subtree emdedding&lt;/span&gt;&lt;/font&gt;&lt;/b&gt;&lt;font color=&quot;#000000&quot;&gt;&lt;br&gt;&lt;/font&gt;" style="text;html=1;align=center;verticalAlign=middle;resizable=0;points=[];autosize=1;strokeColor=none;fillColor=none;fontSize=9;fontColor=#FF0000;" vertex="1" parent="1">
          <mxGeometry x="1920" y="-341" width="159" height="16" as="geometry" />
        </mxCell>
        <mxCell id="LcC4YO1sCL_EDdfkjaUg-32" value="(b)" style="text;html=1;align=center;verticalAlign=middle;resizable=0;points=[];autosize=1;strokeColor=none;fillColor=none;fontSize=16;fontColor=#000000;" vertex="1" parent="1">
          <mxGeometry x="1895" y="-312" width="30" height="23" as="geometry" />
        </mxCell>
        <mxCell id="LcC4YO1sCL_EDdfkjaUg-33" value="" style="ellipse;whiteSpace=wrap;html=1;aspect=fixed;rounded=0;sketch=0;strokeWidth=1;fillColor=#dae8fc;strokeColor=#6c8ebf;gradientColor=#7ea6e0;" vertex="1" parent="1">
          <mxGeometry x="1763.5" y="-475" width="25" height="25" as="geometry" />
        </mxCell>
        <mxCell id="LcC4YO1sCL_EDdfkjaUg-34" value="" style="ellipse;whiteSpace=wrap;html=1;aspect=fixed;rounded=0;sketch=0;strokeWidth=1;fillColor=#fff2cc;strokeColor=#d6b656;gradientColor=#ffd966;" vertex="1" parent="1">
          <mxGeometry x="1832.5" y="-475" width="25" height="25" as="geometry" />
        </mxCell>
        <mxCell id="LcC4YO1sCL_EDdfkjaUg-35" value="" style="ellipse;whiteSpace=wrap;html=1;aspect=fixed;rounded=0;sketch=0;strokeWidth=1;fillColor=#dae8fc;strokeColor=#6c8ebf;gradientColor=#7ea6e0;" vertex="1" parent="1">
          <mxGeometry x="1763.5" y="-386" width="25" height="25" as="geometry" />
        </mxCell>
        <mxCell id="LcC4YO1sCL_EDdfkjaUg-36" value="" style="ellipse;whiteSpace=wrap;html=1;aspect=fixed;rounded=0;sketch=0;strokeWidth=1;fillColor=#fff2cc;strokeColor=#d6b656;gradientColor=#ffd966;" vertex="1" parent="1">
          <mxGeometry x="1832.5" y="-386" width="25" height="25" as="geometry" />
        </mxCell>
        <mxCell id="LcC4YO1sCL_EDdfkjaUg-37" value="" style="ellipse;whiteSpace=wrap;html=1;aspect=fixed;rounded=0;sketch=0;strokeWidth=1;fillColor=#fff2cc;strokeColor=#d6b656;gradientColor=#ffd966;" vertex="1" parent="1">
          <mxGeometry x="1832.5" y="-432" width="25" height="25" as="geometry" />
        </mxCell>
        <mxCell id="LcC4YO1sCL_EDdfkjaUg-38" value="&lt;font color=&quot;#000000&quot;&gt;&lt;b&gt;v&lt;/b&gt;&lt;/font&gt;" style="text;html=1;align=center;verticalAlign=middle;resizable=0;points=[];autosize=1;strokeColor=none;fillColor=none;fontSize=12;fontColor=#FF0000;" vertex="1" parent="1">
          <mxGeometry x="1865.5" y="-428.5" width="16" height="18" as="geometry" />
        </mxCell>
        <mxCell id="LcC4YO1sCL_EDdfkjaUg-39" value="&lt;b&gt;&lt;font style=&quot;font-size: 14px&quot;&gt;Drugs&lt;/font&gt;&lt;/b&gt;" style="text;html=1;align=center;verticalAlign=middle;resizable=0;points=[];autosize=1;strokeColor=none;fillColor=none;fontSize=11;" vertex="1" parent="1">
          <mxGeometry x="1752" y="-506" width="50" height="17" as="geometry" />
        </mxCell>
        <mxCell id="LcC4YO1sCL_EDdfkjaUg-40" value="&lt;b&gt;&lt;font style=&quot;font-size: 14px&quot;&gt;Diseases&lt;/font&gt;&lt;/b&gt;" style="text;html=1;align=center;verticalAlign=middle;resizable=0;points=[];autosize=1;strokeColor=none;fillColor=none;fontSize=11;" vertex="1" parent="1">
          <mxGeometry x="1815.5" y="-506" width="71" height="17" as="geometry" />
        </mxCell>
        <mxCell id="LcC4YO1sCL_EDdfkjaUg-41" value="" style="endArrow=none;html=1;rounded=1;labelBackgroundColor=none;sketch=0;fontSize=12;fontColor=#000000;strokeColor=#000000;strokeWidth=1;curved=0;exitX=0;exitY=0.5;exitDx=0;exitDy=0;entryX=1;entryY=0.5;entryDx=0;entryDy=0;" edge="1" parent="1" source="LcC4YO1sCL_EDdfkjaUg-36" target="LcC4YO1sCL_EDdfkjaUg-35">
          <mxGeometry width="50" height="50" relative="1" as="geometry">
            <mxPoint x="1862" y="-409.5" as="sourcePoint" />
            <mxPoint x="1808.5" y="-410" as="targetPoint" />
          </mxGeometry>
        </mxCell>
        <mxCell id="LcC4YO1sCL_EDdfkjaUg-42" value="" style="endArrow=none;html=1;rounded=1;labelBackgroundColor=none;sketch=0;fontSize=12;fontColor=#000000;strokeColor=#000000;strokeWidth=1;curved=0;exitX=0;exitY=0.5;exitDx=0;exitDy=0;entryX=1;entryY=0.5;entryDx=0;entryDy=0;" edge="1" parent="1" source="LcC4YO1sCL_EDdfkjaUg-34" target="LcC4YO1sCL_EDdfkjaUg-33">
          <mxGeometry width="50" height="50" relative="1" as="geometry">
            <mxPoint x="1842.5000000000027" y="-452.5" as="sourcePoint" />
            <mxPoint x="1798.4999999999973" y="-409.5" as="targetPoint" />
          </mxGeometry>
        </mxCell>
        <mxCell id="LcC4YO1sCL_EDdfkjaUg-43" value="" style="endArrow=none;html=1;rounded=1;labelBackgroundColor=none;sketch=0;fontSize=12;fontColor=#000000;strokeColor=#000000;strokeWidth=1;curved=0;exitX=0;exitY=0.5;exitDx=0;exitDy=0;entryX=1;entryY=0.5;entryDx=0;entryDy=0;" edge="1" parent="1" source="LcC4YO1sCL_EDdfkjaUg-37" target="LcC4YO1sCL_EDdfkjaUg-33">
          <mxGeometry width="50" height="50" relative="1" as="geometry">
            <mxPoint x="1842.4999999999832" y="-452.5" as="sourcePoint" />
            <mxPoint x="1798.4999999999975" y="-452.5" as="targetPoint" />
          </mxGeometry>
        </mxCell>
        <mxCell id="LcC4YO1sCL_EDdfkjaUg-44" value="" style="endArrow=none;html=1;rounded=1;labelBackgroundColor=none;sketch=0;fontSize=12;fontColor=#000000;strokeColor=#000000;strokeWidth=1;curved=0;exitX=0;exitY=0.5;exitDx=0;exitDy=0;" edge="1" parent="1" source="LcC4YO1sCL_EDdfkjaUg-37">
          <mxGeometry width="50" height="50" relative="1" as="geometry">
            <mxPoint x="1842.4999999999832" y="-363.5" as="sourcePoint" />
            <mxPoint x="1788.5" y="-373" as="targetPoint" />
          </mxGeometry>
        </mxCell>
        <mxCell id="LcC4YO1sCL_EDdfkjaUg-45" value="&lt;b&gt;&lt;font style=&quot;font-size: 16px&quot;&gt;&lt;span style=&quot;color: rgb(0 , 0 , 0)&quot;&gt;Subtree emdedding&lt;/span&gt;&lt;/font&gt;&lt;/b&gt;&lt;font color=&quot;#000000&quot;&gt;&lt;br&gt;&lt;/font&gt;" style="text;html=1;align=center;verticalAlign=middle;resizable=0;points=[];autosize=1;strokeColor=none;fillColor=none;fontSize=9;fontColor=#FF0000;" vertex="1" parent="1">
          <mxGeometry x="1736" y="-341" width="159" height="16" as="geometry" />
        </mxCell>
        <mxCell id="LcC4YO1sCL_EDdfkjaUg-46" value="" style="rounded=1;whiteSpace=wrap;html=1;dashed=1;fontSize=16;fontColor=#000000;strokeColor=#000000;fillColor=none;arcSize=11;" vertex="1" parent="1">
          <mxGeometry x="1540" y="-509" width="179" height="223" as="geometry" />
        </mxCell>
        <mxCell id="LcC4YO1sCL_EDdfkjaUg-47" value="" style="rounded=1;whiteSpace=wrap;html=1;dashed=1;fontSize=16;fontColor=#000000;strokeColor=#000000;fillColor=none;arcSize=8;" vertex="1" parent="1">
          <mxGeometry x="1737" y="-509" width="346" height="221" as="geometry" />
        </mxCell>
      </root>
    </mxGraphModel>
  </diagram>
</mxfile>
